<svg xmlns="http://www.w3.org/2000/svg" xmlns:xlink="http://www.w3.org/1999/xlink" width="1500" zoomAndPan="magnify" viewBox="0 0 1125 374.999991" height="500" preserveAspectRatio="xMidYMid meet" version="1.0"><defs><clipPath id="db36a8a4b4"><path d="M 39.082031 99.519531 L 204 99.519531 L 204 263.769531 L 39.082031 263.769531 Z M 39.082031 99.519531 " clip-rule="nonzero"/></clipPath><clipPath id="51bb9e3a37"><path d="M 86.425781 181.683594 C 86.425781 179.390625 86.652344 177.117188 87.097656 174.871094 C 87.542969 172.621094 88.207031 170.4375 89.082031 168.320312 C 89.960938 166.203125 91.035156 164.191406 92.308594 162.285156 C 93.582031 160.378906 95.027344 158.613281 96.648438 156.992188 C 98.269531 155.371094 100.03125 153.925781 101.9375 152.652344 C 103.84375 151.378906 105.855469 150.300781 107.972656 149.425781 C 110.089844 148.546875 112.269531 147.886719 114.519531 147.4375 C 116.765625 146.992188 119.035156 146.765625 121.328125 146.765625 C 123.617188 146.765625 125.886719 146.992188 128.136719 147.4375 C 130.382812 147.886719 132.566406 148.546875 134.683594 149.425781 C 136.800781 150.300781 138.8125 151.378906 140.71875 152.652344 C 142.621094 153.925781 144.386719 155.371094 146.003906 156.992188 C 147.625 158.613281 149.074219 160.378906 150.347656 162.285156 C 151.617188 164.191406 152.695312 166.203125 153.570312 168.320312 C 154.449219 170.4375 155.109375 172.621094 155.558594 174.871094 C 156.003906 177.117188 156.226562 179.390625 156.226562 181.683594 C 156.226562 183.972656 156.003906 186.246094 155.558594 188.492188 C 155.109375 190.742188 154.449219 192.925781 153.570312 195.042969 C 152.695312 197.160156 151.617188 199.171875 150.347656 201.078125 C 149.074219 202.984375 147.625 204.75 146.003906 206.371094 C 144.386719 207.992188 142.621094 209.4375 140.71875 210.710938 C 138.8125 211.988281 136.800781 213.0625 134.683594 213.9375 C 132.566406 214.816406 130.382812 215.480469 128.136719 215.925781 C 125.886719 216.375 123.617188 216.597656 121.328125 216.597656 C 119.035156 216.597656 116.765625 216.375 114.519531 215.925781 C 112.269531 215.480469 110.089844 214.816406 107.972656 213.9375 C 105.855469 213.0625 103.84375 211.988281 101.9375 210.710938 C 100.03125 209.4375 98.269531 207.992188 96.648438 206.371094 C 95.027344 204.75 93.582031 202.984375 92.308594 201.078125 C 91.035156 199.171875 89.960938 197.160156 89.082031 195.042969 C 88.207031 192.925781 87.542969 190.742188 87.097656 188.492188 C 86.652344 186.246094 86.425781 183.972656 86.425781 181.683594 M 39.316406 181.683594 C 39.316406 184.367188 39.445312 187.046875 39.710938 189.722656 C 39.972656 192.394531 40.367188 195.050781 40.890625 197.683594 C 41.414062 200.320312 42.066406 202.921875 42.84375 205.492188 C 43.625 208.0625 44.527344 210.589844 45.554688 213.074219 C 46.582031 215.554688 47.730469 217.980469 48.996094 220.351562 C 50.261719 222.71875 51.640625 225.019531 53.132812 227.253906 C 54.625 229.488281 56.222656 231.644531 57.925781 233.71875 C 59.628906 235.796875 61.429688 237.785156 63.328125 239.683594 C 65.230469 241.585938 67.214844 243.386719 69.292969 245.089844 C 71.367188 246.796875 73.523438 248.394531 75.753906 249.886719 C 77.988281 251.378906 80.289062 252.757812 82.65625 254.023438 C 85.023438 255.292969 87.449219 256.4375 89.929688 257.464844 C 92.410156 258.496094 94.9375 259.398438 97.507812 260.179688 C 100.078125 260.957031 102.679688 261.609375 105.3125 262.132812 C 107.945312 262.660156 110.597656 263.050781 113.269531 263.316406 C 115.945312 263.578125 118.621094 263.710938 121.308594 263.710938 C 123.992188 263.710938 126.671875 263.578125 129.34375 263.316406 C 132.015625 263.050781 134.671875 262.660156 137.304688 262.132812 C 139.9375 261.609375 142.539062 260.957031 145.109375 260.179688 C 147.679688 259.398438 150.203125 258.496094 152.6875 257.464844 C 155.167969 256.4375 157.589844 255.292969 159.960938 254.023438 C 162.328125 252.757812 164.628906 251.378906 166.859375 249.886719 C 169.09375 248.394531 171.25 246.796875 173.324219 245.089844 C 175.398438 243.386719 177.386719 241.585938 179.285156 239.683594 C 181.183594 237.785156 182.984375 235.796875 184.691406 233.71875 C 186.394531 231.644531 187.992188 229.488281 189.484375 227.253906 C 190.976562 225.019531 192.355469 222.71875 193.621094 220.351562 C 194.886719 217.980469 196.03125 215.554688 197.058594 213.074219 C 198.085938 210.589844 198.992188 208.0625 199.769531 205.492188 C 200.550781 202.921875 201.203125 200.320312 201.726562 197.683594 C 202.25 195.050781 202.644531 192.394531 202.90625 189.722656 C 203.167969 187.046875 203.300781 184.367188 203.300781 181.683594 C 203.300781 178.996094 203.167969 176.316406 202.90625 173.640625 C 202.644531 170.96875 202.25 168.3125 201.726562 165.679688 C 201.203125 163.042969 200.550781 160.441406 199.769531 157.871094 C 198.992188 155.300781 198.085938 152.773438 197.058594 150.289062 C 196.03125 147.808594 194.886719 145.382812 193.621094 143.015625 C 192.355469 140.644531 190.976562 138.34375 189.484375 136.109375 C 187.992188 133.875 186.394531 131.71875 184.691406 129.644531 C 182.984375 127.566406 181.183594 125.578125 179.285156 123.679688 C 177.386719 121.78125 175.398438 119.976562 173.324219 118.273438 C 171.25 116.570312 169.09375 114.96875 166.859375 113.476562 C 164.628906 111.984375 162.328125 110.605469 159.960938 109.339844 C 157.589844 108.074219 155.167969 106.925781 152.6875 105.898438 C 150.203125 104.871094 147.679688 103.964844 145.109375 103.1875 C 142.539062 102.40625 139.9375 101.753906 137.304688 101.230469 C 134.671875 100.707031 132.015625 100.3125 129.34375 100.046875 C 126.671875 99.785156 123.992188 99.652344 121.308594 99.652344 C 118.625 99.65625 115.945312 99.792969 113.273438 100.058594 C 110.605469 100.324219 107.953125 100.722656 105.320312 101.25 C 102.6875 101.777344 100.085938 102.429688 97.519531 103.210938 C 94.953125 103.992188 92.429688 104.898438 89.949219 105.929688 C 87.46875 106.957031 85.046875 108.105469 82.679688 109.375 C 80.3125 110.640625 78.015625 112.019531 75.78125 113.511719 C 73.550781 115.007812 71.398438 116.605469 69.324219 118.308594 C 67.25 120.011719 65.261719 121.8125 63.363281 123.714844 C 61.464844 125.613281 59.664062 127.597656 57.960938 129.675781 C 56.257812 131.75 54.660156 133.90625 53.167969 136.136719 C 51.675781 138.367188 50.296875 140.667969 49.03125 143.035156 C 47.765625 145.40625 46.617188 147.828125 45.585938 150.308594 C 44.558594 152.789062 43.652344 155.3125 42.871094 157.882812 C 42.089844 160.453125 41.4375 163.054688 40.910156 165.6875 C 40.382812 168.320312 39.988281 170.972656 39.71875 173.644531 C 39.453125 176.316406 39.320312 178.996094 39.316406 181.683594 " clip-rule="nonzero"/></clipPath><clipPath id="56c157092c"><path d="M -18.832031 123.894531 L 179.109375 41.539062 L 261.371094 239.546875 L 63.488281 321.902344 Z M -18.832031 123.894531 " clip-rule="nonzero"/></clipPath><linearGradient x1="-1851.992756" gradientTransform="matrix(-51.891803, -124.838231, 124.784787, -51.914027, 137198.668721, -327911.45215)" y1="-1868.38" x2="-1850.406432" gradientUnits="userSpaceOnUse" y2="-1868.38" id="0d6c4057ef"><stop stop-opacity="1" stop-color="rgb(27.839661%, 48.629761%, 84.709167%)" offset="0"/><stop stop-opacity="1" stop-color="rgb(27.806091%, 48.480225%, 84.609985%)" offset="0.0625"/><stop stop-opacity="1" stop-color="rgb(27.748108%, 48.220825%, 84.436035%)" offset="0.0703125"/><stop stop-opacity="1" stop-color="rgb(27.69928%, 47.996521%, 84.286499%)" offset="0.078125"/><stop stop-opacity="1" stop-color="rgb(27.648926%, 47.772217%, 84.136963%)" offset="0.0859375"/><stop stop-opacity="1" stop-color="rgb(27.600098%, 47.547913%, 83.985901%)" offset="0.09375"/><stop stop-opacity="1" stop-color="rgb(27.55127%, 47.323608%, 83.836365%)" offset="0.101562"/><stop stop-opacity="1" stop-color="rgb(27.500916%, 47.099304%, 83.686829%)" offset="0.109375"/><stop stop-opacity="1" stop-color="rgb(27.452087%, 46.875%, 83.537292%)" offset="0.117187"/><stop stop-opacity="1" stop-color="rgb(27.401733%, 46.652222%, 83.387756%)" offset="0.125"/><stop stop-opacity="1" stop-color="rgb(27.352905%, 46.427917%, 83.23822%)" offset="0.132812"/><stop stop-opacity="1" stop-color="rgb(27.302551%, 46.203613%, 83.087158%)" offset="0.140625"/><stop stop-opacity="1" stop-color="rgb(27.253723%, 45.979309%, 82.937622%)" offset="0.148437"/><stop stop-opacity="1" stop-color="rgb(27.203369%, 45.755005%, 82.788086%)" offset="0.15625"/><stop stop-opacity="1" stop-color="rgb(27.154541%, 45.530701%, 82.63855%)" offset="0.164062"/><stop stop-opacity="1" stop-color="rgb(27.104187%, 45.306396%, 82.489014%)" offset="0.171875"/><stop stop-opacity="1" stop-color="rgb(27.043152%, 45.045471%, 82.313538%)" offset="0.179688"/><stop stop-opacity="1" stop-color="rgb(26.963806%, 44.720459%, 82.096863%)" offset="0.1875"/><stop stop-opacity="1" stop-color="rgb(26.876831%, 44.366455%, 81.860352%)" offset="0.195312"/><stop stop-opacity="1" stop-color="rgb(26.78833%, 44.012451%, 81.62384%)" offset="0.203125"/><stop stop-opacity="1" stop-color="rgb(26.699829%, 43.658447%, 81.388855%)" offset="0.210937"/><stop stop-opacity="1" stop-color="rgb(26.611328%, 43.304443%, 81.152344%)" offset="0.21875"/><stop stop-opacity="1" stop-color="rgb(26.522827%, 42.950439%, 80.917358%)" offset="0.226563"/><stop stop-opacity="1" stop-color="rgb(26.434326%, 42.596436%, 80.680847%)" offset="0.234375"/><stop stop-opacity="1" stop-color="rgb(26.345825%, 42.242432%, 80.445862%)" offset="0.242188"/><stop stop-opacity="1" stop-color="rgb(26.257324%, 41.888428%, 80.209351%)" offset="0.25"/><stop stop-opacity="1" stop-color="rgb(26.168823%, 41.534424%, 79.972839%)" offset="0.257812"/><stop stop-opacity="1" stop-color="rgb(26.080322%, 41.18042%, 79.737854%)" offset="0.265625"/><stop stop-opacity="1" stop-color="rgb(25.991821%, 40.826416%, 79.501343%)" offset="0.273438"/><stop stop-opacity="1" stop-color="rgb(25.90332%, 40.472412%, 79.266357%)" offset="0.28125"/><stop stop-opacity="1" stop-color="rgb(25.814819%, 40.118408%, 79.029846%)" offset="0.289062"/><stop stop-opacity="1" stop-color="rgb(25.726318%, 39.764404%, 78.793335%)" offset="0.296875"/><stop stop-opacity="1" stop-color="rgb(25.637817%, 39.4104%, 78.55835%)" offset="0.304687"/><stop stop-opacity="1" stop-color="rgb(25.549316%, 39.056396%, 78.321838%)" offset="0.3125"/><stop stop-opacity="1" stop-color="rgb(25.462341%, 38.702393%, 78.086853%)" offset="0.320312"/><stop stop-opacity="1" stop-color="rgb(25.37384%, 38.348389%, 77.850342%)" offset="0.328125"/><stop stop-opacity="1" stop-color="rgb(25.285339%, 37.994385%, 77.613831%)" offset="0.335938"/><stop stop-opacity="1" stop-color="rgb(25.196838%, 37.640381%, 77.378845%)" offset="0.34375"/><stop stop-opacity="1" stop-color="rgb(25.108337%, 37.286377%, 77.142334%)" offset="0.351562"/><stop stop-opacity="1" stop-color="rgb(25.019836%, 36.932373%, 76.907349%)" offset="0.359375"/><stop stop-opacity="1" stop-color="rgb(24.931335%, 36.578369%, 76.670837%)" offset="0.367188"/><stop stop-opacity="1" stop-color="rgb(24.842834%, 36.224365%, 76.435852%)" offset="0.375"/><stop stop-opacity="1" stop-color="rgb(24.754333%, 35.870361%, 76.199341%)" offset="0.382812"/><stop stop-opacity="1" stop-color="rgb(24.655151%, 35.452271%, 75.918579%)" offset="0.386719"/><stop stop-opacity="1" stop-color="rgb(24.601746%, 35.211182%, 75.756836%)" offset="0.390625"/><stop stop-opacity="1" stop-color="rgb(24.546814%, 34.970093%, 75.593567%)" offset="0.394531"/><stop stop-opacity="1" stop-color="rgb(24.493408%, 34.729004%, 75.430298%)" offset="0.398437"/><stop stop-opacity="1" stop-color="rgb(24.438477%, 34.486389%, 75.267029%)" offset="0.402344"/><stop stop-opacity="1" stop-color="rgb(24.385071%, 34.2453%, 75.105286%)" offset="0.40625"/><stop stop-opacity="1" stop-color="rgb(24.330139%, 34.004211%, 74.942017%)" offset="0.410156"/><stop stop-opacity="1" stop-color="rgb(24.275208%, 33.763123%, 74.778748%)" offset="0.414062"/><stop stop-opacity="1" stop-color="rgb(24.220276%, 33.520508%, 74.615479%)" offset="0.417969"/><stop stop-opacity="1" stop-color="rgb(24.16687%, 33.279419%, 74.452209%)" offset="0.421875"/><stop stop-opacity="1" stop-color="rgb(24.111938%, 33.03833%, 74.28894%)" offset="0.425781"/><stop stop-opacity="1" stop-color="rgb(24.058533%, 32.797241%, 74.127197%)" offset="0.429687"/><stop stop-opacity="1" stop-color="rgb(24.003601%, 32.554626%, 73.963928%)" offset="0.433594"/><stop stop-opacity="1" stop-color="rgb(23.950195%, 32.313538%, 73.800659%)" offset="0.4375"/><stop stop-opacity="1" stop-color="rgb(23.895264%, 32.072449%, 73.63739%)" offset="0.441406"/><stop stop-opacity="1" stop-color="rgb(23.841858%, 31.83136%, 73.475647%)" offset="0.445312"/><stop stop-opacity="1" stop-color="rgb(23.786926%, 31.588745%, 73.312378%)" offset="0.449219"/><stop stop-opacity="1" stop-color="rgb(23.731995%, 31.347656%, 73.149109%)" offset="0.453125"/><stop stop-opacity="1" stop-color="rgb(23.677063%, 31.106567%, 72.98584%)" offset="0.457031"/><stop stop-opacity="1" stop-color="rgb(23.623657%, 30.865479%, 72.822571%)" offset="0.460937"/><stop stop-opacity="1" stop-color="rgb(23.568726%, 30.622864%, 72.659302%)" offset="0.464844"/><stop stop-opacity="1" stop-color="rgb(23.51532%, 30.381775%, 72.497559%)" offset="0.46875"/><stop stop-opacity="1" stop-color="rgb(23.460388%, 30.140686%, 72.33429%)" offset="0.472656"/><stop stop-opacity="1" stop-color="rgb(23.406982%, 29.899597%, 72.171021%)" offset="0.476562"/><stop stop-opacity="1" stop-color="rgb(23.352051%, 29.656982%, 72.007751%)" offset="0.480469"/><stop stop-opacity="1" stop-color="rgb(23.298645%, 29.415894%, 71.844482%)" offset="0.484375"/><stop stop-opacity="1" stop-color="rgb(23.243713%, 29.174805%, 71.681213%)" offset="0.488281"/><stop stop-opacity="1" stop-color="rgb(23.188782%, 28.933716%, 71.51947%)" offset="0.492187"/><stop stop-opacity="1" stop-color="rgb(23.13385%, 28.691101%, 71.356201%)" offset="0.496094"/><stop stop-opacity="1" stop-color="rgb(23.080444%, 28.450012%, 71.192932%)" offset="0.5"/><stop stop-opacity="1" stop-color="rgb(23.025513%, 28.208923%, 71.029663%)" offset="0.503906"/><stop stop-opacity="1" stop-color="rgb(22.972107%, 27.967834%, 70.86792%)" offset="0.507812"/><stop stop-opacity="1" stop-color="rgb(22.917175%, 27.72522%, 70.704651%)" offset="0.511719"/><stop stop-opacity="1" stop-color="rgb(22.86377%, 27.484131%, 70.541382%)" offset="0.515625"/><stop stop-opacity="1" stop-color="rgb(22.808838%, 27.243042%, 70.378113%)" offset="0.519531"/><stop stop-opacity="1" stop-color="rgb(22.753906%, 27.001953%, 70.214844%)" offset="0.523437"/><stop stop-opacity="1" stop-color="rgb(22.698975%, 26.759338%, 70.051575%)" offset="0.527344"/><stop stop-opacity="1" stop-color="rgb(22.645569%, 26.51825%, 69.889832%)" offset="0.53125"/><stop stop-opacity="1" stop-color="rgb(22.590637%, 26.277161%, 69.726562%)" offset="0.535156"/><stop stop-opacity="1" stop-color="rgb(22.537231%, 26.036072%, 69.563293%)" offset="0.539062"/><stop stop-opacity="1" stop-color="rgb(22.4823%, 25.793457%, 69.400024%)" offset="0.542969"/><stop stop-opacity="1" stop-color="rgb(22.428894%, 25.552368%, 69.238281%)" offset="0.546875"/><stop stop-opacity="1" stop-color="rgb(22.373962%, 25.311279%, 69.075012%)" offset="0.550781"/><stop stop-opacity="1" stop-color="rgb(22.320557%, 25.07019%, 68.911743%)" offset="0.554688"/><stop stop-opacity="1" stop-color="rgb(22.265625%, 24.827576%, 68.748474%)" offset="0.558594"/><stop stop-opacity="1" stop-color="rgb(22.210693%, 24.586487%, 68.585205%)" offset="0.5625"/><stop stop-opacity="1" stop-color="rgb(22.155762%, 24.345398%, 68.421936%)" offset="0.566406"/><stop stop-opacity="1" stop-color="rgb(22.102356%, 24.104309%, 68.260193%)" offset="0.570312"/><stop stop-opacity="1" stop-color="rgb(22.047424%, 23.861694%, 68.096924%)" offset="0.574219"/><stop stop-opacity="1" stop-color="rgb(21.994019%, 23.620605%, 67.933655%)" offset="0.578125"/><stop stop-opacity="1" stop-color="rgb(21.939087%, 23.379517%, 67.770386%)" offset="0.582031"/><stop stop-opacity="1" stop-color="rgb(21.885681%, 23.138428%, 67.607117%)" offset="0.585938"/><stop stop-opacity="1" stop-color="rgb(21.83075%, 22.895813%, 67.443848%)" offset="0.589844"/><stop stop-opacity="1" stop-color="rgb(21.777344%, 22.654724%, 67.282104%)" offset="0.59375"/><stop stop-opacity="1" stop-color="rgb(21.722412%, 22.413635%, 67.118835%)" offset="0.597656"/><stop stop-opacity="1" stop-color="rgb(21.66748%, 22.172546%, 66.955566%)" offset="0.601562"/><stop stop-opacity="1" stop-color="rgb(21.612549%, 21.929932%, 66.792297%)" offset="0.605469"/><stop stop-opacity="1" stop-color="rgb(21.559143%, 21.688843%, 66.630554%)" offset="0.609375"/><stop stop-opacity="1" stop-color="rgb(21.504211%, 21.447754%, 66.467285%)" offset="0.613281"/><stop stop-opacity="1" stop-color="rgb(21.450806%, 21.206665%, 66.304016%)" offset="0.617187"/><stop stop-opacity="1" stop-color="rgb(21.395874%, 20.96405%, 66.140747%)" offset="0.621094"/><stop stop-opacity="1" stop-color="rgb(21.342468%, 20.722961%, 65.977478%)" offset="0.625"/><stop stop-opacity="1" stop-color="rgb(21.287537%, 20.481873%, 65.814209%)" offset="0.628906"/><stop stop-opacity="1" stop-color="rgb(21.234131%, 20.240784%, 65.652466%)" offset="0.632812"/><stop stop-opacity="1" stop-color="rgb(21.177673%, 19.985962%, 65.478516%)" offset="0.636719"/><stop stop-opacity="1" stop-color="rgb(21.121216%, 19.732666%, 65.306091%)" offset="0.640625"/><stop stop-opacity="1" stop-color="rgb(21.063232%, 19.467163%, 65.122986%)" offset="0.644531"/><stop stop-opacity="1" stop-color="rgb(21.005249%, 19.20166%, 64.941406%)" offset="0.648437"/><stop stop-opacity="1" stop-color="rgb(20.94574%, 18.936157%, 64.758301%)" offset="0.652344"/><stop stop-opacity="1" stop-color="rgb(20.887756%, 18.670654%, 64.575195%)" offset="0.65625"/><stop stop-opacity="1" stop-color="rgb(20.829773%, 18.405151%, 64.39209%)" offset="0.660156"/><stop stop-opacity="1" stop-color="rgb(20.77179%, 18.139648%, 64.21051%)" offset="0.664062"/><stop stop-opacity="1" stop-color="rgb(20.713806%, 17.874146%, 64.027405%)" offset="0.667969"/><stop stop-opacity="1" stop-color="rgb(20.655823%, 17.608643%, 63.845825%)" offset="0.671875"/><stop stop-opacity="1" stop-color="rgb(20.596313%, 17.34314%, 63.66272%)" offset="0.675781"/><stop stop-opacity="1" stop-color="rgb(20.53833%, 17.077637%, 63.479614%)" offset="0.679687"/><stop stop-opacity="1" stop-color="rgb(20.480347%, 16.812134%, 63.296509%)" offset="0.683594"/><stop stop-opacity="1" stop-color="rgb(20.422363%, 16.546631%, 63.114929%)" offset="0.6875"/><stop stop-opacity="1" stop-color="rgb(20.36438%, 16.281128%, 62.931824%)" offset="0.691406"/><stop stop-opacity="1" stop-color="rgb(20.306396%, 16.015625%, 62.750244%)" offset="0.695312"/><stop stop-opacity="1" stop-color="rgb(20.248413%, 15.750122%, 62.567139%)" offset="0.699219"/><stop stop-opacity="1" stop-color="rgb(20.19043%, 15.484619%, 62.384033%)" offset="0.703125"/><stop stop-opacity="1" stop-color="rgb(20.13092%, 15.21759%, 62.200928%)" offset="0.707031"/><stop stop-opacity="1" stop-color="rgb(20.072937%, 14.952087%, 62.019348%)" offset="0.710938"/><stop stop-opacity="1" stop-color="rgb(20.014954%, 14.686584%, 61.836243%)" offset="0.714844"/><stop stop-opacity="1" stop-color="rgb(19.95697%, 14.421082%, 61.653137%)" offset="0.71875"/><stop stop-opacity="1" stop-color="rgb(19.898987%, 14.155579%, 61.470032%)" offset="0.722656"/><stop stop-opacity="1" stop-color="rgb(19.841003%, 13.890076%, 61.288452%)" offset="0.726562"/><stop stop-opacity="1" stop-color="rgb(19.78302%, 13.624573%, 61.105347%)" offset="0.730469"/><stop stop-opacity="1" stop-color="rgb(19.725037%, 13.35907%, 60.923767%)" offset="0.734375"/><stop stop-opacity="1" stop-color="rgb(19.665527%, 13.093567%, 60.740662%)" offset="0.738281"/><stop stop-opacity="1" stop-color="rgb(19.607544%, 12.828064%, 60.557556%)" offset="0.742188"/><stop stop-opacity="1" stop-color="rgb(19.549561%, 12.562561%, 60.374451%)" offset="0.746094"/><stop stop-opacity="1" stop-color="rgb(19.491577%, 12.297058%, 60.192871%)" offset="0.75"/><stop stop-opacity="1" stop-color="rgb(19.433594%, 12.031555%, 60.009766%)" offset="0.753906"/><stop stop-opacity="1" stop-color="rgb(19.37561%, 11.766052%, 59.828186%)" offset="0.757812"/><stop stop-opacity="1" stop-color="rgb(19.316101%, 11.500549%, 59.645081%)" offset="0.761719"/><stop stop-opacity="1" stop-color="rgb(19.258118%, 11.235046%, 59.461975%)" offset="0.765625"/><stop stop-opacity="1" stop-color="rgb(19.200134%, 10.969543%, 59.27887%)" offset="0.769531"/><stop stop-opacity="1" stop-color="rgb(19.142151%, 10.704041%, 59.09729%)" offset="0.773438"/><stop stop-opacity="1" stop-color="rgb(19.084167%, 10.438538%, 58.914185%)" offset="0.777344"/><stop stop-opacity="1" stop-color="rgb(19.026184%, 10.173035%, 58.732605%)" offset="0.78125"/><stop stop-opacity="1" stop-color="rgb(18.968201%, 9.907532%, 58.5495%)" offset="0.785156"/><stop stop-opacity="1" stop-color="rgb(18.910217%, 9.642029%, 58.366394%)" offset="0.789062"/><stop stop-opacity="1" stop-color="rgb(18.850708%, 9.375%, 58.183289%)" offset="0.792969"/><stop stop-opacity="1" stop-color="rgb(18.792725%, 9.109497%, 58.001709%)" offset="0.796875"/><stop stop-opacity="1" stop-color="rgb(18.734741%, 8.843994%, 57.818604%)" offset="0.800781"/><stop stop-opacity="1" stop-color="rgb(18.676758%, 8.578491%, 57.635498%)" offset="0.804688"/><stop stop-opacity="1" stop-color="rgb(18.618774%, 8.312988%, 57.452393%)" offset="0.808594"/><stop stop-opacity="1" stop-color="rgb(18.560791%, 8.047485%, 57.270813%)" offset="0.8125"/><stop stop-opacity="1" stop-color="rgb(18.501282%, 7.781982%, 57.087708%)" offset="0.816406"/><stop stop-opacity="1" stop-color="rgb(18.443298%, 7.516479%, 56.906128%)" offset="0.820313"/><stop stop-opacity="1" stop-color="rgb(18.435669%, 7.48291%, 56.881714%)" offset="0.828125"/><stop stop-opacity="1" stop-color="rgb(18.429565%, 7.449341%, 56.858826%)" offset="0.84375"/><stop stop-opacity="1" stop-color="rgb(18.429565%, 7.449341%, 56.858826%)" offset="0.875"/><stop stop-opacity="1" stop-color="rgb(18.429565%, 7.449341%, 56.858826%)" offset="1"/></linearGradient><clipPath id="57e2135192"><path d="M 100 99.519531 L 206 99.519531 L 206 263.769531 L 100 263.769531 Z M 100 99.519531 " clip-rule="nonzero"/></clipPath><clipPath id="7ccaa18445"><path d="M 138.09375 124.839844 L 121.269531 146.785156 C 123.523438 146.839844 125.753906 147.109375 127.957031 147.59375 C 130.160156 148.078125 132.296875 148.773438 134.363281 149.671875 C 136.433594 150.574219 138.394531 151.664062 140.253906 152.945312 C 142.109375 154.226562 143.824219 155.675781 145.402344 157.289062 C 146.976562 158.902344 148.382812 160.65625 149.621094 162.542969 C 150.859375 164.429688 151.902344 166.417969 152.753906 168.507812 C 153.605469 170.597656 154.246094 172.75 154.679688 174.964844 C 155.113281 177.179688 155.328125 179.414062 155.328125 181.671875 C 155.328125 183.929688 155.113281 186.164062 154.679688 188.378906 C 154.246094 190.59375 153.605469 192.746094 152.753906 194.835938 C 151.902344 196.925781 150.859375 198.914062 149.621094 200.800781 C 148.382812 202.691406 146.976562 204.441406 145.402344 206.054688 C 143.824219 207.671875 142.109375 209.117188 140.253906 210.398438 C 138.394531 211.679688 136.433594 212.769531 134.363281 213.671875 C 132.296875 214.570312 130.160156 215.265625 127.957031 215.75 C 125.753906 216.234375 123.523438 216.503906 121.269531 216.558594 L 100.203125 240.511719 L 121.269531 263.671875 C 123.957031 263.734375 126.640625 263.664062 129.320312 263.460938 C 132.003906 263.257812 134.667969 262.925781 137.316406 262.460938 C 139.964844 261.996094 142.582031 261.40625 145.171875 260.683594 C 147.761719 259.960938 150.308594 259.113281 152.816406 258.140625 C 155.324219 257.167969 157.773438 256.074219 160.175781 254.859375 C 162.574219 253.648438 164.90625 252.316406 167.175781 250.875 C 169.445312 249.429688 171.636719 247.878906 173.75 246.21875 C 175.867188 244.5625 177.898438 242.800781 179.839844 240.945312 C 181.78125 239.085938 183.628906 237.136719 185.382812 235.09375 C 187.132812 233.054688 188.78125 230.933594 190.324219 228.730469 C 191.863281 226.527344 193.296875 224.253906 194.617188 221.910156 C 195.933594 219.566406 197.136719 217.164062 198.21875 214.703125 C 199.300781 212.242188 200.261719 209.734375 201.097656 207.175781 C 201.933594 204.621094 202.644531 202.03125 203.226562 199.402344 C 203.808594 196.777344 204.261719 194.128906 204.582031 191.460938 C 204.902344 188.789062 205.09375 186.109375 205.152344 183.421875 C 205.210938 180.734375 205.136719 178.046875 204.929688 175.367188 C 204.722656 172.683594 204.386719 170.019531 203.917969 167.371094 C 203.453125 164.722656 202.855469 162.101562 202.128906 159.511719 C 201.40625 156.921875 200.554688 154.375 199.578125 151.867188 C 198.601562 149.363281 197.507812 146.910156 196.289062 144.511719 C 195.074219 142.113281 193.742188 139.78125 192.296875 137.515625 C 190.851562 135.246094 189.296875 133.054688 187.636719 130.941406 C 185.972656 128.828125 184.210938 126.796875 182.351562 124.859375 C 180.492188 122.917969 178.539062 121.070312 176.496094 119.320312 C 174.457031 117.574219 172.332031 115.929688 170.128906 114.386719 C 167.925781 112.847656 165.652344 111.417969 163.304688 110.101562 C 160.960938 108.785156 158.558594 107.585938 156.097656 106.507812 C 153.636719 105.425781 151.125 104.46875 148.570312 103.636719 C 146.015625 102.804688 143.421875 102.097656 140.796875 101.519531 C 138.171875 100.941406 135.523438 100.492188 132.855469 100.171875 C 130.1875 99.855469 127.507812 99.667969 124.820312 99.613281 C 123.640625 99.613281 122.445312 99.613281 121.269531 99.613281 Z M 138.09375 124.839844 " clip-rule="nonzero"/></clipPath><clipPath id="1fb564ce38"><path d="M 57.875 251.957031 L 107.550781 73.113281 L 245.550781 111.425781 L 195.894531 290.328125 Z M 57.875 251.957031 " clip-rule="nonzero"/></clipPath><linearGradient x1="-1861.117052" gradientTransform="matrix(-29.254188, 105.389523, -105.344403, -29.266715, -253888.323893, 140775.755601)" y1="-1895.15" x2="-1859.414293" gradientUnits="userSpaceOnUse" y2="-1895.15" id="a1f9ad2d45"><stop stop-opacity="1" stop-color="rgb(12.548828%, 33.329773%, 85.488892%)" offset="0"/><stop stop-opacity="1" stop-color="rgb(12.548828%, 33.329773%, 85.488892%)" offset="0.125"/><stop stop-opacity="1" stop-color="rgb(12.548828%, 33.329773%, 85.488892%)" offset="0.15625"/><stop stop-opacity="1" stop-color="rgb(12.548828%, 33.329773%, 85.488892%)" offset="0.171875"/><stop stop-opacity="1" stop-color="rgb(12.521362%, 33.4198%, 85.51178%)" offset="0.179687"/><stop stop-opacity="1" stop-color="rgb(12.417603%, 33.764648%, 85.603333%)" offset="0.183594"/><stop stop-opacity="1" stop-color="rgb(12.341309%, 34.01947%, 85.671997%)" offset="0.1875"/><stop stop-opacity="1" stop-color="rgb(12.263489%, 34.272766%, 85.739136%)" offset="0.191406"/><stop stop-opacity="1" stop-color="rgb(12.187195%, 34.527588%, 85.806274%)" offset="0.195312"/><stop stop-opacity="1" stop-color="rgb(12.109375%, 34.78241%, 85.873413%)" offset="0.199219"/><stop stop-opacity="1" stop-color="rgb(12.033081%, 35.037231%, 85.940552%)" offset="0.203125"/><stop stop-opacity="1" stop-color="rgb(11.956787%, 35.292053%, 86.00769%)" offset="0.207031"/><stop stop-opacity="1" stop-color="rgb(11.880493%, 35.546875%, 86.074829%)" offset="0.210937"/><stop stop-opacity="1" stop-color="rgb(11.802673%, 35.801697%, 86.141968%)" offset="0.214844"/><stop stop-opacity="1" stop-color="rgb(11.726379%, 36.056519%, 86.209106%)" offset="0.21875"/><stop stop-opacity="1" stop-color="rgb(11.64856%, 36.31134%, 86.276245%)" offset="0.222656"/><stop stop-opacity="1" stop-color="rgb(11.572266%, 36.566162%, 86.343384%)" offset="0.226562"/><stop stop-opacity="1" stop-color="rgb(11.494446%, 36.819458%, 86.410522%)" offset="0.230469"/><stop stop-opacity="1" stop-color="rgb(11.418152%, 37.07428%, 86.479187%)" offset="0.234375"/><stop stop-opacity="1" stop-color="rgb(11.340332%, 37.329102%, 86.546326%)" offset="0.238281"/><stop stop-opacity="1" stop-color="rgb(11.264038%, 37.583923%, 86.613464%)" offset="0.242187"/><stop stop-opacity="1" stop-color="rgb(11.187744%, 37.838745%, 86.680603%)" offset="0.246094"/><stop stop-opacity="1" stop-color="rgb(11.11145%, 38.093567%, 86.747742%)" offset="0.25"/><stop stop-opacity="1" stop-color="rgb(11.03363%, 38.348389%, 86.81488%)" offset="0.253906"/><stop stop-opacity="1" stop-color="rgb(10.957336%, 38.60321%, 86.882019%)" offset="0.257812"/><stop stop-opacity="1" stop-color="rgb(10.879517%, 38.856506%, 86.949158%)" offset="0.261719"/><stop stop-opacity="1" stop-color="rgb(10.803223%, 39.111328%, 87.016296%)" offset="0.265625"/><stop stop-opacity="1" stop-color="rgb(10.725403%, 39.36615%, 87.083435%)" offset="0.269531"/><stop stop-opacity="1" stop-color="rgb(10.649109%, 39.620972%, 87.150574%)" offset="0.273438"/><stop stop-opacity="1" stop-color="rgb(10.572815%, 39.875793%, 87.217712%)" offset="0.277344"/><stop stop-opacity="1" stop-color="rgb(10.496521%, 40.130615%, 87.286377%)" offset="0.28125"/><stop stop-opacity="1" stop-color="rgb(10.418701%, 40.385437%, 87.353516%)" offset="0.285156"/><stop stop-opacity="1" stop-color="rgb(10.342407%, 40.640259%, 87.420654%)" offset="0.289062"/><stop stop-opacity="1" stop-color="rgb(10.264587%, 40.895081%, 87.487793%)" offset="0.292969"/><stop stop-opacity="1" stop-color="rgb(10.188293%, 41.149902%, 87.554932%)" offset="0.296875"/><stop stop-opacity="1" stop-color="rgb(10.110474%, 41.403198%, 87.62207%)" offset="0.300781"/><stop stop-opacity="1" stop-color="rgb(10.03418%, 41.65802%, 87.689209%)" offset="0.304688"/><stop stop-opacity="1" stop-color="rgb(9.957886%, 41.912842%, 87.756348%)" offset="0.308594"/><stop stop-opacity="1" stop-color="rgb(9.881592%, 42.167664%, 87.823486%)" offset="0.3125"/><stop stop-opacity="1" stop-color="rgb(9.803772%, 42.422485%, 87.890625%)" offset="0.316406"/><stop stop-opacity="1" stop-color="rgb(9.727478%, 42.677307%, 87.957764%)" offset="0.320312"/><stop stop-opacity="1" stop-color="rgb(9.649658%, 42.932129%, 88.024902%)" offset="0.324219"/><stop stop-opacity="1" stop-color="rgb(9.573364%, 43.186951%, 88.093567%)" offset="0.328125"/><stop stop-opacity="1" stop-color="rgb(9.495544%, 43.440247%, 88.160706%)" offset="0.332031"/><stop stop-opacity="1" stop-color="rgb(9.41925%, 43.695068%, 88.227844%)" offset="0.335938"/><stop stop-opacity="1" stop-color="rgb(9.341431%, 43.94989%, 88.294983%)" offset="0.339844"/><stop stop-opacity="1" stop-color="rgb(9.265137%, 44.204712%, 88.362122%)" offset="0.34375"/><stop stop-opacity="1" stop-color="rgb(9.188843%, 44.459534%, 88.42926%)" offset="0.347656"/><stop stop-opacity="1" stop-color="rgb(9.112549%, 44.714355%, 88.496399%)" offset="0.351562"/><stop stop-opacity="1" stop-color="rgb(9.034729%, 44.969177%, 88.563538%)" offset="0.355469"/><stop stop-opacity="1" stop-color="rgb(8.958435%, 45.223999%, 88.630676%)" offset="0.359375"/><stop stop-opacity="1" stop-color="rgb(8.880615%, 45.477295%, 88.697815%)" offset="0.363281"/><stop stop-opacity="1" stop-color="rgb(8.804321%, 45.732117%, 88.764954%)" offset="0.367187"/><stop stop-opacity="1" stop-color="rgb(8.726501%, 45.986938%, 88.832092%)" offset="0.371094"/><stop stop-opacity="1" stop-color="rgb(8.650208%, 46.24176%, 88.899231%)" offset="0.375"/><stop stop-opacity="1" stop-color="rgb(8.573914%, 46.496582%, 88.96637%)" offset="0.378906"/><stop stop-opacity="1" stop-color="rgb(8.49762%, 46.751404%, 89.035034%)" offset="0.382812"/><stop stop-opacity="1" stop-color="rgb(8.4198%, 47.006226%, 89.102173%)" offset="0.386719"/><stop stop-opacity="1" stop-color="rgb(8.343506%, 47.261047%, 89.169312%)" offset="0.390625"/><stop stop-opacity="1" stop-color="rgb(8.265686%, 47.515869%, 89.23645%)" offset="0.394531"/><stop stop-opacity="1" stop-color="rgb(8.189392%, 47.770691%, 89.303589%)" offset="0.398437"/><stop stop-opacity="1" stop-color="rgb(8.111572%, 48.023987%, 89.370728%)" offset="0.402344"/><stop stop-opacity="1" stop-color="rgb(8.035278%, 48.278809%, 89.437866%)" offset="0.40625"/><stop stop-opacity="1" stop-color="rgb(7.958984%, 48.53363%, 89.505005%)" offset="0.410156"/><stop stop-opacity="1" stop-color="rgb(7.88269%, 48.788452%, 89.572144%)" offset="0.414062"/><stop stop-opacity="1" stop-color="rgb(7.804871%, 49.043274%, 89.639282%)" offset="0.417969"/><stop stop-opacity="1" stop-color="rgb(7.728577%, 49.298096%, 89.706421%)" offset="0.421875"/><stop stop-opacity="1" stop-color="rgb(7.650757%, 49.552917%, 89.77356%)" offset="0.425781"/><stop stop-opacity="1" stop-color="rgb(7.574463%, 49.807739%, 89.842224%)" offset="0.429687"/><stop stop-opacity="1" stop-color="rgb(7.496643%, 50.061035%, 89.909363%)" offset="0.433594"/><stop stop-opacity="1" stop-color="rgb(7.420349%, 50.315857%, 89.976501%)" offset="0.4375"/><stop stop-opacity="1" stop-color="rgb(7.344055%, 50.570679%, 90.04364%)" offset="0.441406"/><stop stop-opacity="1" stop-color="rgb(7.267761%, 50.8255%, 90.110779%)" offset="0.445312"/><stop stop-opacity="1" stop-color="rgb(7.189941%, 51.080322%, 90.177917%)" offset="0.449219"/><stop stop-opacity="1" stop-color="rgb(7.113647%, 51.335144%, 90.245056%)" offset="0.453125"/><stop stop-opacity="1" stop-color="rgb(7.035828%, 51.589966%, 90.312195%)" offset="0.457031"/><stop stop-opacity="1" stop-color="rgb(6.959534%, 51.844788%, 90.379333%)" offset="0.460937"/><stop stop-opacity="1" stop-color="rgb(6.881714%, 52.099609%, 90.446472%)" offset="0.464844"/><stop stop-opacity="1" stop-color="rgb(6.80542%, 52.354431%, 90.513611%)" offset="0.46875"/><stop stop-opacity="1" stop-color="rgb(6.7276%, 52.607727%, 90.58075%)" offset="0.472656"/><stop stop-opacity="1" stop-color="rgb(6.651306%, 52.862549%, 90.649414%)" offset="0.476562"/><stop stop-opacity="1" stop-color="rgb(6.575012%, 53.117371%, 90.716553%)" offset="0.480469"/><stop stop-opacity="1" stop-color="rgb(6.498718%, 53.372192%, 90.783691%)" offset="0.484375"/><stop stop-opacity="1" stop-color="rgb(6.420898%, 53.627014%, 90.85083%)" offset="0.488281"/><stop stop-opacity="1" stop-color="rgb(6.344604%, 53.881836%, 90.917969%)" offset="0.492187"/><stop stop-opacity="1" stop-color="rgb(6.266785%, 54.136658%, 90.985107%)" offset="0.496094"/><stop stop-opacity="1" stop-color="rgb(6.190491%, 54.391479%, 91.052246%)" offset="0.5"/><stop stop-opacity="1" stop-color="rgb(6.112671%, 54.644775%, 91.119385%)" offset="0.503906"/><stop stop-opacity="1" stop-color="rgb(6.036377%, 54.899597%, 91.186523%)" offset="0.507813"/><stop stop-opacity="1" stop-color="rgb(5.960083%, 55.154419%, 91.253662%)" offset="0.511719"/><stop stop-opacity="1" stop-color="rgb(5.883789%, 55.409241%, 91.320801%)" offset="0.515625"/><stop stop-opacity="1" stop-color="rgb(5.805969%, 55.664062%, 91.387939%)" offset="0.519531"/><stop stop-opacity="1" stop-color="rgb(5.729675%, 55.918884%, 91.456604%)" offset="0.523438"/><stop stop-opacity="1" stop-color="rgb(5.651855%, 56.173706%, 91.523743%)" offset="0.527344"/><stop stop-opacity="1" stop-color="rgb(5.575562%, 56.428528%, 91.590881%)" offset="0.53125"/><stop stop-opacity="1" stop-color="rgb(5.497742%, 56.68335%, 91.65802%)" offset="0.535156"/><stop stop-opacity="1" stop-color="rgb(5.421448%, 56.938171%, 91.725159%)" offset="0.539063"/><stop stop-opacity="1" stop-color="rgb(5.345154%, 57.191467%, 91.792297%)" offset="0.542969"/><stop stop-opacity="1" stop-color="rgb(5.26886%, 57.446289%, 91.859436%)" offset="0.546875"/><stop stop-opacity="1" stop-color="rgb(5.19104%, 57.701111%, 91.926575%)" offset="0.550781"/><stop stop-opacity="1" stop-color="rgb(5.114746%, 57.955933%, 91.993713%)" offset="0.554688"/><stop stop-opacity="1" stop-color="rgb(5.036926%, 58.210754%, 92.060852%)" offset="0.558594"/><stop stop-opacity="1" stop-color="rgb(4.960632%, 58.465576%, 92.127991%)" offset="0.5625"/><stop stop-opacity="1" stop-color="rgb(4.882812%, 58.720398%, 92.195129%)" offset="0.566406"/><stop stop-opacity="1" stop-color="rgb(4.806519%, 58.97522%, 92.262268%)" offset="0.570313"/><stop stop-opacity="1" stop-color="rgb(4.728699%, 59.228516%, 92.329407%)" offset="0.574219"/><stop stop-opacity="1" stop-color="rgb(4.652405%, 59.483337%, 92.398071%)" offset="0.578125"/><stop stop-opacity="1" stop-color="rgb(4.576111%, 59.738159%, 92.46521%)" offset="0.582031"/><stop stop-opacity="1" stop-color="rgb(4.499817%, 59.992981%, 92.532349%)" offset="0.585938"/><stop stop-opacity="1" stop-color="rgb(4.421997%, 60.247803%, 92.599487%)" offset="0.589844"/><stop stop-opacity="1" stop-color="rgb(4.345703%, 60.502625%, 92.666626%)" offset="0.59375"/><stop stop-opacity="1" stop-color="rgb(4.267883%, 60.757446%, 92.733765%)" offset="0.597656"/><stop stop-opacity="1" stop-color="rgb(4.191589%, 61.012268%, 92.800903%)" offset="0.601563"/><stop stop-opacity="1" stop-color="rgb(4.11377%, 61.265564%, 92.868042%)" offset="0.605469"/><stop stop-opacity="1" stop-color="rgb(4.037476%, 61.520386%, 92.935181%)" offset="0.609375"/><stop stop-opacity="1" stop-color="rgb(3.961182%, 61.775208%, 93.002319%)" offset="0.613281"/><stop stop-opacity="1" stop-color="rgb(3.884888%, 62.030029%, 93.069458%)" offset="0.617188"/><stop stop-opacity="1" stop-color="rgb(3.807068%, 62.284851%, 93.136597%)" offset="0.621094"/><stop stop-opacity="1" stop-color="rgb(3.730774%, 62.539673%, 93.205261%)" offset="0.625"/><stop stop-opacity="1" stop-color="rgb(3.652954%, 62.794495%, 93.2724%)" offset="0.628906"/><stop stop-opacity="1" stop-color="rgb(3.57666%, 63.049316%, 93.339539%)" offset="0.632813"/><stop stop-opacity="1" stop-color="rgb(3.49884%, 63.304138%, 93.406677%)" offset="0.636719"/><stop stop-opacity="1" stop-color="rgb(3.422546%, 63.55896%, 93.473816%)" offset="0.640625"/><stop stop-opacity="1" stop-color="rgb(3.346252%, 63.812256%, 93.540955%)" offset="0.644531"/><stop stop-opacity="1" stop-color="rgb(3.269958%, 64.067078%, 93.608093%)" offset="0.648438"/><stop stop-opacity="1" stop-color="rgb(3.192139%, 64.321899%, 93.675232%)" offset="0.652344"/><stop stop-opacity="1" stop-color="rgb(3.115845%, 64.576721%, 93.742371%)" offset="0.65625"/><stop stop-opacity="1" stop-color="rgb(3.038025%, 64.831543%, 93.809509%)" offset="0.660156"/><stop stop-opacity="1" stop-color="rgb(2.961731%, 65.086365%, 93.876648%)" offset="0.664062"/><stop stop-opacity="1" stop-color="rgb(2.883911%, 65.341187%, 93.943787%)" offset="0.667969"/><stop stop-opacity="1" stop-color="rgb(2.807617%, 65.596008%, 94.012451%)" offset="0.671875"/><stop stop-opacity="1" stop-color="rgb(2.731323%, 65.849304%, 94.07959%)" offset="0.675781"/><stop stop-opacity="1" stop-color="rgb(2.655029%, 66.104126%, 94.146729%)" offset="0.679688"/><stop stop-opacity="1" stop-color="rgb(2.577209%, 66.358948%, 94.213867%)" offset="0.683594"/><stop stop-opacity="1" stop-color="rgb(2.500916%, 66.61377%, 94.281006%)" offset="0.6875"/><stop stop-opacity="1" stop-color="rgb(2.423096%, 66.868591%, 94.348145%)" offset="0.691406"/><stop stop-opacity="1" stop-color="rgb(2.346802%, 67.123413%, 94.415283%)" offset="0.695312"/><stop stop-opacity="1" stop-color="rgb(2.268982%, 67.378235%, 94.482422%)" offset="0.699219"/><stop stop-opacity="1" stop-color="rgb(2.192688%, 67.633057%, 94.549561%)" offset="0.703125"/><stop stop-opacity="1" stop-color="rgb(2.114868%, 67.887878%, 94.616699%)" offset="0.707031"/><stop stop-opacity="1" stop-color="rgb(2.038574%, 68.1427%, 94.683838%)" offset="0.710938"/><stop stop-opacity="1" stop-color="rgb(1.96228%, 68.395996%, 94.750977%)" offset="0.714844"/><stop stop-opacity="1" stop-color="rgb(1.885986%, 68.650818%, 94.819641%)" offset="0.71875"/><stop stop-opacity="1" stop-color="rgb(1.808167%, 68.90564%, 94.88678%)" offset="0.722656"/><stop stop-opacity="1" stop-color="rgb(1.731873%, 69.160461%, 94.953918%)" offset="0.726562"/><stop stop-opacity="1" stop-color="rgb(1.654053%, 69.415283%, 95.021057%)" offset="0.730469"/><stop stop-opacity="1" stop-color="rgb(1.577759%, 69.670105%, 95.088196%)" offset="0.734375"/><stop stop-opacity="1" stop-color="rgb(1.499939%, 69.924927%, 95.155334%)" offset="0.738281"/><stop stop-opacity="1" stop-color="rgb(1.423645%, 70.179749%, 95.222473%)" offset="0.742188"/><stop stop-opacity="1" stop-color="rgb(1.347351%, 70.433044%, 95.289612%)" offset="0.746094"/><stop stop-opacity="1" stop-color="rgb(1.271057%, 70.687866%, 95.35675%)" offset="0.75"/><stop stop-opacity="1" stop-color="rgb(1.193237%, 70.942688%, 95.423889%)" offset="0.753906"/><stop stop-opacity="1" stop-color="rgb(1.116943%, 71.19751%, 95.491028%)" offset="0.757812"/><stop stop-opacity="1" stop-color="rgb(1.039124%, 71.452332%, 95.558167%)" offset="0.761719"/><stop stop-opacity="1" stop-color="rgb(0.96283%, 71.707153%, 95.626831%)" offset="0.765625"/><stop stop-opacity="1" stop-color="rgb(0.88501%, 71.961975%, 95.69397%)" offset="0.769531"/><stop stop-opacity="1" stop-color="rgb(0.808716%, 72.216797%, 95.761108%)" offset="0.773438"/><stop stop-opacity="1" stop-color="rgb(0.732422%, 72.471619%, 95.828247%)" offset="0.777344"/><stop stop-opacity="1" stop-color="rgb(0.656128%, 72.72644%, 95.895386%)" offset="0.78125"/><stop stop-opacity="1" stop-color="rgb(0.578308%, 72.979736%, 95.962524%)" offset="0.785156"/><stop stop-opacity="1" stop-color="rgb(0.502014%, 73.234558%, 96.029663%)" offset="0.789062"/><stop stop-opacity="1" stop-color="rgb(0.424194%, 73.48938%, 96.096802%)" offset="0.792969"/><stop stop-opacity="1" stop-color="rgb(0.3479%, 73.744202%, 96.16394%)" offset="0.796875"/><stop stop-opacity="1" stop-color="rgb(0.270081%, 73.999023%, 96.231079%)" offset="0.800781"/><stop stop-opacity="1" stop-color="rgb(0.193787%, 74.253845%, 96.298218%)" offset="0.804688"/><stop stop-opacity="1" stop-color="rgb(0.115967%, 74.508667%, 96.365356%)" offset="0.808594"/><stop stop-opacity="1" stop-color="rgb(0.0396729%, 74.763489%, 96.432495%)" offset="0.8125"/><stop stop-opacity="1" stop-color="rgb(0.0198364%, 74.830627%, 96.450806%)" offset="0.875"/><stop stop-opacity="1" stop-color="rgb(0%, 74.899292%, 96.469116%)" offset="1"/></linearGradient></defs><path fill="#3b62de" d="M 321.527344 211.597656 C 321.984375 211.609375 322.429688 211.703125 322.851562 211.882812 C 323.273438 212.066406 323.648438 212.316406 323.972656 212.644531 C 324.300781 212.96875 324.550781 213.34375 324.734375 213.765625 C 324.914062 214.191406 325.007812 214.632812 325.019531 215.089844 L 325.019531 224.277344 C 325.007812 224.738281 324.914062 225.179688 324.734375 225.605469 C 324.550781 226.027344 324.300781 226.402344 323.972656 226.726562 C 323.648438 227.054688 323.273438 227.304688 322.851562 227.488281 C 322.429688 227.667969 321.984375 227.761719 321.527344 227.773438 L 264.804688 227.773438 C 264.34375 227.769531 263.898438 227.679688 263.472656 227.5 C 263.046875 227.324219 262.667969 227.070312 262.34375 226.742188 C 262.015625 226.417969 261.761719 226.039062 261.585938 225.613281 C 261.40625 225.1875 261.316406 224.742188 261.3125 224.277344 L 261.3125 140.746094 C 261.316406 140.28125 261.40625 139.835938 261.585938 139.410156 C 261.761719 138.984375 262.015625 138.605469 262.34375 138.28125 C 262.667969 137.953125 263.046875 137.699219 263.472656 137.523438 C 263.898438 137.34375 264.34375 137.253906 264.804688 137.25 L 320.523438 137.25 C 321.488281 137.246094 322.304688 137.59375 322.972656 138.292969 C 323.679688 138.957031 324.019531 139.777344 323.996094 140.746094 L 323.996094 149.933594 C 323.992188 150.390625 323.898438 150.835938 323.722656 151.257812 C 323.542969 151.683594 323.292969 152.058594 322.96875 152.382812 C 322.644531 152.710938 322.269531 152.964844 321.847656 153.144531 C 321.425781 153.324219 320.984375 153.417969 320.523438 153.425781 L 278.695312 153.425781 L 278.695312 173.980469 L 317.667969 173.980469 C 318.128906 173.984375 318.574219 174.074219 319 174.253906 C 319.425781 174.429688 319.804688 174.683594 320.132812 175.007812 C 320.457031 175.335938 320.710938 175.714844 320.890625 176.140625 C 321.066406 176.566406 321.15625 177.011719 321.160156 177.472656 L 321.160156 186.640625 C 321.167969 187.109375 321.085938 187.5625 320.914062 188 C 320.742188 188.433594 320.492188 188.820312 320.167969 189.15625 C 319.839844 189.492188 319.464844 189.753906 319.035156 189.941406 C 318.605469 190.128906 318.15625 190.226562 317.6875 190.230469 L 278.695312 190.230469 L 278.695312 211.695312 Z M 321.527344 211.597656 " fill-opacity="1" fill-rule="nonzero"/><path fill="#3b62de" d="M 399.679688 227.773438 C 399.066406 227.816406 398.464844 227.738281 397.882812 227.535156 C 397.300781 227.335938 396.78125 227.027344 396.324219 226.613281 C 395.550781 225.824219 394.992188 225.226562 394.644531 224.800781 L 358.453125 170.929688 L 358.453125 224.203125 C 358.449219 224.664062 358.359375 225.109375 358.179688 225.535156 C 358.003906 225.960938 357.75 226.339844 357.421875 226.667969 C 357.097656 226.992188 356.71875 227.246094 356.292969 227.425781 C 355.867188 227.601562 355.421875 227.691406 354.960938 227.695312 L 344.503906 227.695312 C 344.042969 227.691406 343.597656 227.601562 343.171875 227.425781 C 342.742188 227.246094 342.367188 226.992188 342.039062 226.667969 C 341.714844 226.339844 341.460938 225.960938 341.28125 225.535156 C 341.105469 225.109375 341.015625 224.664062 341.011719 224.203125 L 341.011719 140.667969 C 341.015625 140.207031 341.105469 139.761719 341.28125 139.332031 C 341.460938 138.90625 341.714844 138.53125 342.039062 138.203125 C 342.367188 137.875 342.742188 137.625 343.171875 137.445312 C 343.597656 137.265625 344.042969 137.175781 344.503906 137.175781 L 353.550781 137.175781 C 354.167969 137.132812 354.765625 137.210938 355.347656 137.410156 C 355.929688 137.613281 356.453125 137.917969 356.910156 138.332031 C 357.679688 139.105469 358.238281 139.722656 358.585938 140.148438 L 394.839844 194.09375 L 394.839844 140.820312 C 394.839844 140.359375 394.929688 139.914062 395.109375 139.488281 C 395.285156 139.0625 395.539062 138.683594 395.867188 138.359375 C 396.191406 138.03125 396.570312 137.777344 396.996094 137.601562 C 397.421875 137.421875 397.867188 137.332031 398.328125 137.328125 L 408.804688 137.328125 C 409.265625 137.335938 409.707031 137.429688 410.128906 137.609375 C 410.554688 137.789062 410.925781 138.042969 411.25 138.371094 C 411.574219 138.695312 411.828125 139.070312 412.003906 139.496094 C 412.183594 139.917969 412.273438 140.363281 412.277344 140.820312 L 412.277344 224.355469 C 412.273438 224.816406 412.183594 225.257812 412.003906 225.683594 C 411.828125 226.105469 411.574219 226.480469 411.25 226.808594 C 410.925781 227.136719 410.554688 227.386719 410.128906 227.566406 C 409.707031 227.75 409.265625 227.84375 408.804688 227.847656 Z M 399.679688 227.773438 " fill-opacity="1" fill-rule="nonzero"/><path fill="#3b62de" d="M 429.160156 170.738281 C 429.269531 165.855469 430.214844 161.140625 431.996094 156.589844 C 433.679688 152.363281 436.179688 148.699219 439.5 145.589844 C 443.035156 142.375 447.066406 140.003906 451.597656 138.488281 C 454.460938 137.617188 457.375 136.972656 460.335938 136.550781 C 463.300781 136.128906 466.277344 135.933594 469.269531 135.964844 C 472.261719 136 475.234375 136.257812 478.1875 136.746094 C 481.140625 137.234375 484.039062 137.941406 486.882812 138.871094 C 491.179688 140.472656 495.039062 142.800781 498.457031 145.859375 C 501.09375 148.210938 503.113281 151.011719 504.515625 154.253906 C 505.519531 156.597656 506.160156 159.039062 506.445312 161.570312 C 506.507812 162.042969 506.453125 162.503906 506.28125 162.949219 C 506.109375 163.394531 505.84375 163.769531 505.480469 164.078125 C 504.765625 164.738281 503.925781 165.058594 502.953125 165.042969 L 492.457031 165.042969 C 491.617188 165.082031 490.859375 164.851562 490.183594 164.351562 C 489.675781 163.9375 489.269531 163.441406 488.964844 162.863281 C 488.792969 162.515625 488.328125 161.761719 487.597656 160.585938 C 486.640625 159.1875 485.484375 157.984375 484.125 156.976562 C 482.214844 155.53125 480.136719 154.390625 477.890625 153.5625 C 474.765625 152.488281 471.550781 152 468.246094 152.09375 C 465.4375 151.960938 462.699219 152.34375 460.035156 153.25 C 457.371094 154.152344 454.960938 155.511719 452.8125 157.324219 C 451.84375 158.21875 450.972656 159.203125 450.207031 160.277344 C 449.4375 161.347656 448.785156 162.488281 448.253906 163.695312 C 447.71875 164.902344 447.3125 166.152344 447.035156 167.441406 C 446.753906 168.730469 446.609375 170.035156 446.601562 171.355469 C 446.445312 174.636719 446.347656 178.148438 446.347656 181.894531 C 446.347656 185.636719 446.445312 189.152344 446.601562 192.433594 C 446.871094 199.585938 448.941406 204.777344 452.8125 208.007812 C 455.015625 209.707031 457.441406 210.972656 460.097656 211.808594 C 462.75 212.640625 465.46875 212.988281 468.246094 212.851562 C 471.222656 212.890625 474.15625 212.550781 477.042969 211.828125 C 479.585938 211.203125 481.886719 210.085938 483.949219 208.472656 C 485.984375 206.804688 487.496094 204.753906 488.484375 202.316406 C 489.640625 199.300781 490.175781 196.179688 490.085938 192.953125 L 490.085938 191.910156 L 474.324219 191.910156 C 473.863281 191.902344 473.421875 191.804688 473 191.625 C 472.574219 191.445312 472.203125 191.191406 471.875 190.867188 C 471.550781 190.539062 471.296875 190.167969 471.117188 189.742188 C 470.9375 189.320312 470.839844 188.878906 470.832031 188.417969 L 470.832031 179.269531 C 470.824219 178.300781 471.171875 177.484375 471.875 176.816406 C 472.539062 176.113281 473.355469 175.773438 474.324219 175.796875 L 504.035156 175.796875 C 505.003906 175.773438 505.820312 176.113281 506.484375 176.816406 C 507.183594 177.484375 507.53125 178.300781 507.527344 179.269531 L 507.527344 193.492188 C 507.566406 198.410156 506.75 203.175781 505.074219 207.796875 C 503.46875 212.105469 501.011719 215.855469 497.707031 219.046875 C 494.136719 222.382812 490.039062 224.84375 485.417969 226.421875 C 482.644531 227.289062 479.824219 227.941406 476.957031 228.382812 C 474.085938 228.820312 471.199219 229.042969 468.292969 229.042969 C 465.390625 229.042969 462.503906 228.820312 459.632812 228.382812 C 456.761719 227.941406 453.941406 227.289062 451.171875 226.421875 C 446.652344 224.886719 442.667969 222.476562 439.210938 219.183594 C 435.941406 215.996094 433.503906 212.265625 431.898438 207.988281 C 430.167969 203.386719 429.242188 198.625 429.121094 193.707031 C 429.121094 192.066406 428.964844 190.25 428.929688 188.28125 C 428.890625 186.3125 428.929688 184.269531 428.929688 182.203125 L 428.929688 176.125 C 428.929688 174.15625 429.082031 172.378906 429.160156 170.738281 Z M 429.160156 170.738281 " fill-opacity="1" fill-rule="nonzero"/><path fill="#3b62de" d="M 527.398438 227.773438 C 526.9375 227.761719 526.496094 227.667969 526.074219 227.488281 C 525.648438 227.304688 525.273438 227.054688 524.949219 226.726562 C 524.625 226.402344 524.371094 226.027344 524.191406 225.605469 C 524.011719 225.179688 523.914062 224.738281 523.90625 224.277344 L 523.90625 140.746094 C 523.914062 140.285156 524.011719 139.84375 524.191406 139.417969 C 524.371094 138.996094 524.625 138.621094 524.949219 138.296875 C 525.273438 137.972656 525.648438 137.71875 526.074219 137.539062 C 526.496094 137.355469 526.9375 137.261719 527.398438 137.25 L 537.871094 137.25 C 538.332031 137.261719 538.773438 137.355469 539.199219 137.539062 C 539.621094 137.71875 539.996094 137.972656 540.320312 138.296875 C 540.644531 138.621094 540.898438 138.996094 541.078125 139.417969 C 541.261719 139.84375 541.355469 140.285156 541.363281 140.746094 L 541.363281 224.277344 C 541.355469 224.738281 541.261719 225.179688 541.078125 225.605469 C 540.898438 226.027344 540.644531 226.402344 540.320312 226.726562 C 539.996094 227.054688 539.621094 227.304688 539.199219 227.488281 C 538.773438 227.667969 538.332031 227.761719 537.871094 227.773438 Z M 527.398438 227.773438 " fill-opacity="1" fill-rule="nonzero"/><path fill="#3b62de" d="M 620.195312 227.773438 C 619.578125 227.816406 618.980469 227.738281 618.398438 227.535156 C 617.816406 227.335938 617.296875 227.027344 616.835938 226.613281 C 616.066406 225.824219 615.507812 225.226562 615.160156 224.800781 L 578.964844 170.929688 L 578.964844 224.203125 C 578.964844 224.667969 578.871094 225.117188 578.691406 225.550781 C 578.507812 225.980469 578.25 226.359375 577.917969 226.6875 C 577.585938 227.015625 577.199219 227.265625 576.765625 227.441406 C 576.335938 227.617188 575.882812 227.699219 575.417969 227.695312 L 564.960938 227.695312 C 564.496094 227.691406 564.054688 227.601562 563.625 227.425781 C 563.199219 227.246094 562.824219 226.992188 562.496094 226.667969 C 562.167969 226.339844 561.917969 225.960938 561.738281 225.535156 C 561.5625 225.109375 561.46875 224.664062 561.46875 224.203125 L 561.46875 140.667969 C 561.46875 140.207031 561.5625 139.761719 561.738281 139.332031 C 561.917969 138.90625 562.167969 138.53125 562.496094 138.203125 C 562.824219 137.875 563.199219 137.625 563.625 137.445312 C 564.054688 137.265625 564.496094 137.175781 564.960938 137.175781 L 574.007812 137.175781 C 574.621094 137.132812 575.222656 137.210938 575.804688 137.410156 C 576.386719 137.613281 576.90625 137.917969 577.363281 138.332031 C 578.136719 139.105469 578.695312 139.722656 579.042969 140.148438 L 615.234375 194.1875 L 615.234375 140.820312 C 615.238281 140.359375 615.328125 139.914062 615.507812 139.488281 C 615.683594 139.0625 615.9375 138.683594 616.265625 138.359375 C 616.589844 138.03125 616.96875 137.777344 617.394531 137.601562 C 617.820312 137.421875 618.265625 137.332031 618.726562 137.328125 L 629.183594 137.328125 C 629.648438 137.332031 630.089844 137.421875 630.519531 137.601562 C 630.945312 137.777344 631.320312 138.03125 631.648438 138.359375 C 631.976562 138.683594 632.226562 139.0625 632.40625 139.488281 C 632.582031 139.914062 632.675781 140.359375 632.675781 140.820312 L 632.675781 224.355469 C 632.675781 224.820312 632.582031 225.261719 632.40625 225.691406 C 632.226562 226.117188 631.976562 226.492188 631.648438 226.820312 C 631.320312 227.148438 630.945312 227.398438 630.519531 227.578125 C 630.089844 227.757812 629.648438 227.847656 629.183594 227.847656 Z M 620.195312 227.773438 " fill-opacity="1" fill-rule="nonzero"/><path fill="#3b62de" d="M 713.164062 211.597656 C 713.625 211.609375 714.066406 211.703125 714.488281 211.882812 C 714.914062 212.066406 715.289062 212.316406 715.613281 212.644531 C 715.9375 212.96875 716.191406 213.34375 716.371094 213.765625 C 716.550781 214.191406 716.648438 214.632812 716.65625 215.089844 L 716.65625 224.277344 C 716.648438 224.738281 716.550781 225.179688 716.371094 225.605469 C 716.191406 226.027344 715.9375 226.402344 715.613281 226.726562 C 715.289062 227.054688 714.914062 227.304688 714.488281 227.488281 C 714.066406 227.667969 713.625 227.761719 713.164062 227.773438 L 656.445312 227.773438 C 655.984375 227.761719 655.542969 227.667969 655.121094 227.488281 C 654.695312 227.304688 654.324219 227.054688 653.996094 226.726562 C 653.671875 226.402344 653.417969 226.027344 653.238281 225.605469 C 653.058594 225.179688 652.964844 224.738281 652.953125 224.277344 L 652.953125 140.746094 C 652.964844 140.285156 653.058594 139.84375 653.238281 139.417969 C 653.417969 138.996094 653.671875 138.621094 653.996094 138.296875 C 654.324219 137.972656 654.699219 137.71875 655.121094 137.539062 C 655.542969 137.355469 655.984375 137.261719 656.445312 137.25 L 712.160156 137.25 C 712.621094 137.261719 713.0625 137.355469 713.488281 137.539062 C 713.910156 137.71875 714.285156 137.972656 714.609375 138.296875 C 714.933594 138.621094 715.1875 138.996094 715.367188 139.417969 C 715.550781 139.84375 715.644531 140.285156 715.652344 140.746094 L 715.652344 149.933594 C 715.644531 150.390625 715.550781 150.835938 715.367188 151.257812 C 715.1875 151.679688 714.933594 152.054688 714.609375 152.378906 C 714.285156 152.707031 713.910156 152.960938 713.488281 153.140625 C 713.0625 153.320312 712.621094 153.414062 712.160156 153.425781 L 670.355469 153.425781 L 670.355469 173.980469 L 709.308594 173.980469 C 709.769531 173.984375 710.214844 174.074219 710.640625 174.253906 C 711.066406 174.429688 711.445312 174.683594 711.769531 175.007812 C 712.097656 175.335938 712.351562 175.714844 712.527344 176.140625 C 712.707031 176.566406 712.796875 177.011719 712.796875 177.472656 L 712.796875 186.640625 C 712.816406 187.617188 712.46875 188.441406 711.757812 189.113281 C 711.082031 189.796875 710.265625 190.140625 709.308594 190.136719 L 670.355469 190.136719 L 670.355469 211.597656 Z M 713.164062 211.597656 " fill-opacity="1" fill-rule="nonzero"/><path fill="#3b62de" d="M 827.144531 137.25 C 827.605469 137.261719 828.046875 137.355469 828.46875 137.539062 C 828.894531 137.71875 829.269531 137.972656 829.59375 138.296875 C 829.917969 138.621094 830.171875 138.996094 830.351562 139.417969 C 830.53125 139.84375 830.628906 140.285156 830.636719 140.746094 C 830.640625 141.148438 830.558594 141.535156 830.386719 141.902344 L 799.75 195.828125 L 799.75 224.277344 C 799.742188 224.738281 799.644531 225.179688 799.464844 225.605469 C 799.285156 226.027344 799.03125 226.402344 798.707031 226.726562 C 798.378906 227.054688 798.007812 227.304688 797.582031 227.488281 C 797.160156 227.667969 796.71875 227.761719 796.257812 227.773438 L 785.917969 227.773438 C 785.457031 227.765625 785.011719 227.675781 784.585938 227.496094 C 784.160156 227.316406 783.785156 227.066406 783.460938 226.738281 C 783.132812 226.410156 782.878906 226.035156 782.703125 225.609375 C 782.523438 225.183594 782.429688 224.742188 782.425781 224.277344 L 782.425781 195.828125 L 751.75 141.980469 C 751.578125 141.613281 751.496094 141.226562 751.5 140.820312 C 751.476562 139.851562 751.816406 139.035156 752.523438 138.371094 C 753.191406 137.660156 754.015625 137.3125 754.992188 137.328125 L 764.636719 137.328125 C 765.339844 137.277344 766.027344 137.367188 766.695312 137.589844 C 767.363281 137.816406 767.964844 138.160156 768.496094 138.621094 C 769.117188 139.179688 769.632812 139.820312 770.039062 140.550781 L 790.992188 177.222656 L 811.921875 140.550781 C 812.335938 139.820312 812.859375 139.179688 813.488281 138.621094 C 814.011719 138.152344 814.613281 137.800781 815.28125 137.578125 C 815.953125 137.351562 816.640625 137.269531 817.34375 137.328125 Z M 827.144531 137.25 " fill-opacity="1" fill-rule="nonzero"/><path fill="#3b62de" d="M 876.515625 137.25 C 877.085938 137.207031 877.644531 137.277344 878.1875 137.46875 C 878.726562 137.660156 879.207031 137.957031 879.621094 138.351562 C 880.460938 139.324219 881.0625 140.421875 881.433594 141.652344 L 913.035156 223.371094 C 913.105469 223.628906 913.140625 223.894531 913.148438 224.160156 C 913.15625 224.429688 913.132812 224.695312 913.082031 224.957031 C 913.027344 225.21875 912.945312 225.472656 912.835938 225.714844 C 912.722656 225.957031 912.585938 226.1875 912.425781 226.398438 C 912.261719 226.609375 912.078125 226.800781 911.871094 226.972656 C 911.664062 227.140625 911.441406 227.285156 911.199219 227.40625 C 910.960938 227.523438 910.710938 227.613281 910.453125 227.675781 C 910.191406 227.738281 909.925781 227.769531 909.660156 227.773438 L 900.359375 227.773438 C 899.707031 227.84375 899.066406 227.78125 898.433594 227.59375 C 897.804688 227.402344 897.238281 227.09375 896.734375 226.671875 C 896.109375 226.058594 895.640625 225.34375 895.324219 224.53125 L 889.886719 210.1875 L 848.984375 210.1875 L 843.429688 224.53125 C 843.09375 225.332031 842.625 226.046875 842.019531 226.671875 C 841.515625 227.09375 840.949219 227.402344 840.320312 227.59375 C 839.6875 227.78125 839.046875 227.84375 838.394531 227.773438 L 829.074219 227.773438 C 828.109375 227.777344 827.292969 227.429688 826.625 226.730469 C 825.917969 226.066406 825.578125 225.246094 825.601562 224.277344 C 825.601562 223.972656 825.640625 223.667969 825.71875 223.371094 L 857.394531 141.652344 C 857.765625 140.421875 858.371094 139.324219 859.210938 138.351562 C 859.621094 137.957031 860.097656 137.660156 860.636719 137.46875 C 861.171875 137.277344 861.726562 137.207031 862.296875 137.25 Z M 883.632812 194.09375 L 869.433594 157.171875 L 855.160156 194.09375 Z M 883.632812 194.09375 " fill-opacity="1" fill-rule="nonzero"/><path fill="#3b62de" d="M 961.828125 137.25 C 972.605469 137.25 980.792969 139.753906 986.386719 144.757812 C 991.980469 149.765625 994.785156 156.699219 994.796875 165.566406 C 994.886719 168.402344 994.558594 171.195312 993.820312 173.9375 C 993.082031 176.679688 991.960938 179.253906 990.457031 181.664062 C 988.925781 183.957031 987.070312 185.953125 984.894531 187.648438 C 982.714844 189.339844 980.324219 190.648438 977.722656 191.5625 L 995.570312 223.507812 C 995.804688 223.953125 995.933594 224.429688 995.957031 224.933594 C 995.949219 225.308594 995.875 225.667969 995.730469 226.015625 C 995.582031 226.359375 995.378906 226.664062 995.113281 226.929688 C 994.847656 227.195312 994.542969 227.402344 994.199219 227.546875 C 993.855469 227.691406 993.492188 227.765625 993.121094 227.773438 L 982.121094 227.773438 C 981.421875 227.839844 980.738281 227.769531 980.066406 227.554688 C 979.394531 227.339844 978.792969 227 978.265625 226.535156 C 977.554688 225.882812 976.96875 225.128906 976.507812 224.277344 L 959.628906 194.09375 L 942.4375 194.09375 L 942.4375 224.222656 C 942.433594 224.683594 942.34375 225.128906 942.167969 225.554688 C 941.988281 225.980469 941.738281 226.359375 941.410156 226.6875 C 941.082031 227.011719 940.707031 227.265625 940.277344 227.441406 C 939.851562 227.621094 939.410156 227.710938 938.945312 227.714844 L 928.46875 227.714844 C 928.007812 227.710938 927.5625 227.621094 927.136719 227.445312 C 926.710938 227.265625 926.332031 227.011719 926.007812 226.6875 C 925.679688 226.359375 925.425781 225.980469 925.25 225.554688 C 925.070312 225.128906 924.980469 224.683594 924.976562 224.222656 L 924.976562 140.6875 C 924.980469 140.222656 925.070312 139.78125 925.25 139.351562 C 925.425781 138.925781 925.679688 138.550781 926.007812 138.222656 C 926.332031 137.894531 926.710938 137.644531 927.136719 137.464844 C 927.5625 137.285156 928.007812 137.195312 928.46875 137.195312 Z M 942.4375 177.976562 L 961.265625 177.976562 C 965.421875 178.171875 969.34375 177.308594 973.035156 175.390625 C 975.949219 173.671875 977.394531 170.390625 977.414062 165.566406 C 977.433594 160.742188 975.96875 157.515625 973.035156 155.914062 C 969.316406 154.121094 965.390625 153.335938 961.265625 153.5625 L 942.515625 153.5625 Z M 942.4375 177.976562 " fill-opacity="1" fill-rule="nonzero"/><path fill="#3b62de" d="M 1047.023438 137.25 C 1052.703125 137.140625 1058.242188 137.984375 1063.632812 139.78125 C 1065.808594 140.496094 1067.878906 141.449219 1069.835938 142.636719 C 1071.796875 143.820312 1073.601562 145.210938 1075.246094 146.804688 C 1076.890625 148.398438 1078.339844 150.160156 1079.585938 152.082031 C 1080.832031 154.003906 1081.851562 156.039062 1082.636719 158.191406 C 1084.375 162.929688 1085.386719 167.820312 1085.664062 172.863281 C 1086.011719 179.242188 1086.011719 185.625 1085.664062 192.007812 C 1085.394531 197.074219 1084.382812 201.988281 1082.636719 206.753906 C 1081.035156 211.011719 1078.644531 214.761719 1075.460938 218.007812 C 1072.132812 221.253906 1068.277344 223.640625 1063.882812 225.167969 C 1058.625 226.960938 1053.214844 227.804688 1047.660156 227.695312 L 1015.09375 227.695312 C 1014.632812 227.691406 1014.1875 227.597656 1013.761719 227.417969 C 1013.335938 227.238281 1012.960938 226.988281 1012.636719 226.660156 C 1012.308594 226.335938 1012.054688 225.957031 1011.878906 225.53125 C 1011.699219 225.105469 1011.605469 224.664062 1011.601562 224.203125 L 1011.601562 140.746094 C 1011.605469 140.28125 1011.695312 139.835938 1011.871094 139.410156 C 1012.050781 138.984375 1012.304688 138.605469 1012.628906 138.28125 C 1012.957031 137.953125 1013.332031 137.699219 1013.761719 137.523438 C 1014.1875 137.34375 1014.632812 137.253906 1015.09375 137.25 Z M 1068.148438 172.863281 C 1068.007812 170.203125 1067.464844 167.632812 1066.527344 165.140625 C 1065.632812 162.78125 1064.296875 160.710938 1062.515625 158.925781 C 1060.582031 157.046875 1058.34375 155.664062 1055.800781 154.777344 C 1052.671875 153.714844 1049.457031 153.226562 1046.15625 153.308594 L 1028.792969 153.308594 L 1028.792969 211.464844 L 1046.773438 211.464844 C 1049.921875 211.542969 1052.976562 211.046875 1055.9375 209.976562 C 1058.390625 209.097656 1060.546875 207.742188 1062.398438 205.90625 C 1064.140625 204.125 1065.425781 202.058594 1066.257812 199.707031 C 1067.1875 197.21875 1067.726562 194.644531 1067.878906 191.988281 C 1068.296875 185.617188 1068.386719 179.242188 1068.148438 172.863281 Z M 1068.148438 172.863281 " fill-opacity="1" fill-rule="nonzero"/><g clip-path="url(#db36a8a4b4)"><g clip-path="url(#51bb9e3a37)"><g clip-path="url(#56c157092c)"><path fill="url(#0d6c4057ef)" d="M 63.492188 321.875 L 261.441406 239.523438 L 179.125 41.488281 L -18.824219 123.839844 Z M 63.492188 321.875 " fill-rule="nonzero"/></g></g></g><g clip-path="url(#57e2135192)"><g clip-path="url(#7ccaa18445)"><g clip-path="url(#1fb564ce38)"><path fill="url(#a1f9ad2d45)" d="M 247.503906 111.363281 L 107.71875 72.53125 L 57.90625 251.984375 L 197.691406 290.816406 Z M 247.503906 111.363281 " fill-rule="nonzero"/></g></g></g></svg>