<svg xmlns="http://www.w3.org/2000/svg" xmlns:xlink="http://www.w3.org/1999/xlink" width="1500" zoomAndPan="magnify" viewBox="0 0 1125 374.999991" height="500" preserveAspectRatio="xMidYMid meet" version="1.0"><defs><clipPath id="62834765a8"><path d="M 378 62.863281 L 986.796875 62.863281 L 986.796875 311.863281 L 378 311.863281 Z M 378 62.863281 " clip-rule="nonzero"/></clipPath><clipPath id="0071ee7d92"><path d="M 138.546875 69 L 372 69 L 372 273 L 138.546875 273 Z M 138.546875 69 " clip-rule="nonzero"/></clipPath></defs><g clip-path="url(#62834765a8)"><path fill="#1390fb" d="M 773.328125 62.855469 C 767.414062 62.859375 762.285156 64.988281 757.9375 69.238281 C 756.886719 70.234375 755.949219 71.328125 755.128906 72.515625 C 754.304688 73.707031 753.613281 74.96875 753.050781 76.304688 C 752.488281 77.636719 752.070312 79.015625 751.796875 80.433594 C 751.523438 81.855469 751.398438 83.289062 751.421875 84.734375 C 751.398438 86.1875 751.519531 87.625 751.789062 89.050781 C 752.058594 90.476562 752.46875 91.859375 753.015625 93.203125 C 753.566406 94.542969 754.242188 95.820312 755.050781 97.023438 C 755.859375 98.230469 756.777344 99.34375 757.8125 100.363281 L 757.816406 100.375 C 758.8125 101.421875 759.90625 102.359375 761.097656 103.183594 C 762.292969 104.003906 763.554688 104.695312 764.890625 105.257812 C 766.226562 105.816406 767.605469 106.234375 769.027344 106.507812 C 770.449219 106.78125 771.882812 106.90625 773.332031 106.882812 C 774.058594 106.878906 774.78125 106.839844 775.503906 106.769531 C 776.226562 106.695312 776.941406 106.585938 777.652344 106.441406 C 778.363281 106.300781 779.066406 106.121094 779.757812 105.910156 C 780.453125 105.699219 781.136719 105.453125 781.804688 105.175781 C 782.472656 104.894531 783.128906 104.585938 783.769531 104.242188 C 784.40625 103.898438 785.027344 103.527344 785.628906 103.125 C 786.234375 102.722656 786.816406 102.289062 787.375 101.832031 C 787.9375 101.371094 788.472656 100.886719 788.984375 100.375 C 789.5 99.859375 789.984375 99.324219 790.445312 98.765625 C 790.90625 98.207031 791.339844 97.625 791.742188 97.023438 C 792.144531 96.421875 792.519531 95.800781 792.863281 95.164062 C 793.207031 94.523438 793.515625 93.871094 793.796875 93.203125 C 794.074219 92.535156 794.320312 91.855469 794.53125 91.160156 C 794.746094 90.46875 794.921875 89.769531 795.066406 89.058594 C 795.210938 88.347656 795.320312 87.632812 795.394531 86.914062 C 795.464844 86.191406 795.503906 85.46875 795.507812 84.746094 C 795.53125 83.296875 795.40625 81.863281 795.128906 80.441406 C 794.855469 79.019531 794.4375 77.640625 793.875 76.308594 C 793.3125 74.972656 792.621094 73.710938 791.796875 72.519531 C 790.972656 71.328125 790.03125 70.234375 788.980469 69.238281 C 787.957031 68.207031 786.84375 67.289062 785.636719 66.484375 C 784.425781 65.679688 783.152344 65 781.804688 64.453125 C 780.460938 63.902344 779.074219 63.496094 777.648438 63.226562 C 776.21875 62.957031 774.78125 62.835938 773.328125 62.855469 Z M 952.515625 64.945312 L 952.515625 251.433594 L 986.6875 251.433594 L 986.6875 64.945312 Z M 675 118.074219 C 661.785156 118.074219 649.957031 121.027344 639.515625 126.929688 C 634.378906 129.800781 629.726562 133.320312 625.5625 137.476562 C 621.398438 141.636719 617.878906 146.28125 615 151.414062 C 609.089844 161.839844 606.132812 173.648438 606.132812 186.84375 C 606.125 199.871094 609.082031 211.632812 615 222.136719 C 617.863281 227.296875 621.375 231.964844 625.542969 236.148438 C 629.707031 240.328125 634.367188 243.863281 639.515625 246.75 C 649.949219 252.652344 661.78125 255.605469 675.015625 255.605469 C 688.058594 255.601562 699.796875 252.652344 710.230469 246.75 C 715.382812 243.863281 720.039062 240.332031 724.207031 236.148438 C 728.371094 231.96875 731.886719 227.296875 734.746094 222.136719 C 740.664062 211.628906 743.621094 199.867188 743.617188 186.84375 C 743.613281 173.824219 740.65625 162.058594 734.746094 151.550781 C 731.882812 146.390625 728.367188 141.714844 724.199219 137.53125 C 720.03125 133.347656 715.367188 129.8125 710.214844 126.929688 C 699.78125 121.027344 688.046875 118.074219 675 118.074219 Z M 452.484375 118.085938 C 443.277344 118.078125 435.234375 119.945312 428.359375 123.679688 C 421.488281 127.417969 416.398438 132.0625 413.097656 137.617188 L 411.011719 137.617188 L 411.011719 122.25 L 378.929688 122.25 L 378.929688 307.734375 L 413.097656 307.734375 L 413.097656 254.34375 L 411.011719 235.851562 L 413.097656 235.851562 C 416.40625 241.582031 421.492188 246.316406 428.359375 250.050781 C 435.226562 253.785156 443.269531 255.648438 452.484375 255.648438 C 457.996094 255.6875 463.40625 254.957031 468.707031 253.449219 C 474.007812 251.941406 478.992188 249.722656 483.65625 246.792969 C 493.136719 240.894531 500.660156 232.734375 506.222656 222.3125 C 511.785156 211.886719 514.570312 200.078125 514.570312 186.878906 C 514.570312 173.691406 511.785156 161.878906 506.222656 151.449219 C 500.660156 141.015625 493.136719 132.847656 483.65625 126.9375 C 478.992188 124.007812 474.007812 121.789062 468.707031 120.28125 C 463.40625 118.777344 457.996094 118.042969 452.484375 118.085938 Z M 596.480469 118.085938 C 592.585938 118.078125 588.765625 118.605469 585.023438 119.667969 C 581.277344 120.730469 577.75 122.285156 574.441406 124.335938 C 567.566406 128.496094 562.566406 133.703125 559.433594 139.960938 L 557.347656 139.960938 L 557.347656 122.25 L 525.269531 122.25 L 525.269531 251.433594 L 559.4375 251.433594 L 559.4375 187.722656 C 559.441406 176.929688 562.3125 168.007812 568.046875 160.957031 C 573.785156 153.90625 581.433594 150.378906 591 150.378906 C 597.957031 150.378906 605.175781 151.945312 612.652344 155.070312 L 612.652344 121.210938 C 607.476562 119.054688 602.085938 118.011719 596.480469 118.085938 Z M 756.378906 122.25 L 756.378906 265.074219 C 756.378906 275.429688 752.464844 280.605469 744.644531 280.605469 C 740.136719 280.605469 735.613281 279.390625 731.078125 276.960938 L 731.078125 310.039062 C 735.949219 311.257812 741.773438 311.871094 748.550781 311.878906 C 760.898438 311.886719 770.984375 308.121094 778.8125 300.585938 C 786.636719 293.046875 790.550781 281.398438 790.550781 265.640625 L 790.550781 122.25 Z M 810.898438 122.25 L 810.898438 200.648438 C 810.894531 217.839844 814.980469 231.296875 823.15625 241.023438 C 831.332031 250.746094 843.324219 255.605469 859.132812 255.605469 C 867.65625 255.605469 875.394531 253.738281 882.347656 250.003906 C 885.738281 248.222656 888.847656 246.039062 891.675781 243.457031 C 894.503906 240.875 896.960938 237.980469 899.042969 234.769531 L 901.136719 234.769531 L 901.136719 251.433594 L 933.21875 251.433594 L 933.21875 122.253906 L 899.042969 122.253906 L 899.042969 186.320312 C 899.070312 197.265625 896.386719 206.296875 890.996094 213.414062 C 885.601562 220.53125 878.300781 224.09375 869.085938 224.09375 C 861.4375 224.089844 855.523438 221.699219 851.351562 216.929688 C 847.175781 212.15625 845.089844 205.339844 845.089844 196.480469 L 845.089844 122.25 Z M 445.703125 149.585938 C 448.726562 149.578125 451.695312 149.960938 454.613281 150.734375 C 457.53125 151.507812 460.300781 152.644531 462.921875 154.140625 C 465.632812 155.679688 468.082031 157.554688 470.277344 159.765625 C 472.46875 161.976562 474.320312 164.441406 475.832031 167.164062 C 479.050781 172.8125 480.660156 179.367188 480.660156 186.832031 C 480.660156 194.128906 479.050781 200.597656 475.832031 206.246094 C 474.3125 208.976562 472.457031 211.457031 470.265625 213.691406 C 468.074219 215.921875 465.625 217.824219 462.921875 219.398438 L 462.921875 219.402344 C 461.628906 220.164062 460.292969 220.832031 458.910156 221.414062 C 457.527344 221.996094 456.113281 222.488281 454.667969 222.882812 C 453.21875 223.277344 451.753906 223.578125 450.265625 223.78125 C 448.78125 223.980469 447.289062 224.085938 445.789062 224.09375 C 444.289062 224.097656 442.792969 224.003906 441.304688 223.8125 C 439.816406 223.621094 438.351562 223.332031 436.898438 222.949219 C 435.449219 222.5625 434.03125 222.082031 432.644531 221.511719 C 431.261719 220.941406 429.917969 220.277344 428.617188 219.53125 C 425.933594 217.980469 423.507812 216.101562 421.339844 213.890625 C 419.167969 211.679688 417.335938 209.21875 415.839844 206.507812 C 412.621094 200.863281 411.011719 194.308594 411.011719 186.84375 C 411.011719 179.378906 412.621094 172.820312 415.839844 167.164062 C 417.335938 164.453125 419.171875 161.996094 421.339844 159.785156 C 423.511719 157.574219 425.9375 155.691406 428.617188 154.140625 C 431.214844 152.636719 433.960938 151.5 436.859375 150.726562 C 439.757812 149.953125 442.707031 149.574219 445.703125 149.585938 Z M 674.996094 149.597656 C 677.996094 149.585938 680.945312 149.96875 683.84375 150.742188 C 686.738281 151.515625 689.484375 152.652344 692.078125 154.15625 C 694.75 155.699219 697.160156 157.578125 699.304688 159.789062 C 701.453125 162 703.257812 164.464844 704.71875 167.179688 C 707.847656 172.820312 709.414062 179.378906 709.414062 186.84375 C 709.414062 194.3125 707.847656 200.867188 704.71875 206.507812 C 703.257812 209.222656 701.453125 211.6875 699.308594 213.898438 C 697.160156 216.109375 694.75 217.988281 692.078125 219.53125 C 689.484375 221.035156 686.742188 222.175781 683.84375 222.949219 C 680.945312 223.722656 677.996094 224.105469 674.996094 224.09375 C 671.953125 224.117188 668.960938 223.742188 666.019531 222.964844 C 663.074219 222.191406 660.285156 221.046875 657.648438 219.53125 C 654.976562 217.988281 652.566406 216.113281 650.417969 213.898438 C 648.273438 211.6875 646.46875 209.222656 645.011719 206.507812 C 641.878906 200.867188 640.316406 194.3125 640.316406 186.84375 C 640.316406 179.378906 641.878906 172.820312 645.011719 167.179688 C 646.46875 164.464844 648.273438 162 650.421875 159.789062 C 652.570312 157.574219 654.976562 155.699219 657.648438 154.15625 C 660.285156 152.640625 663.078125 151.496094 666.019531 150.722656 C 668.960938 149.949219 671.953125 149.574219 674.996094 149.597656 Z M 674.996094 149.597656 " fill-opacity="1" fill-rule="nonzero"/></g><g clip-path="url(#0071ee7d92)"><path fill="#3a3a3a" d="M 258.316406 69.296875 C 243.03125 69.367188 222.453125 73.027344 207.761719 78.902344 C 185.664062 87.730469 155.519531 115.691406 141.304688 149.386719 C 140.25 151.859375 138.496094 156.101562 138.519531 157.75 C 138.546875 159.859375 142.976562 160.085938 148.429688 153.824219 C 155.824219 145.324219 170.679688 124.804688 186.652344 121.152344 C 197.875 118.582031 205.957031 120.757812 205.957031 137.453125 L 205.957031 272.179688 L 258.832031 272.179688 L 258.832031 162.414062 L 236.421875 162.414062 L 236.421875 156.585938 L 265.339844 156.585938 C 265.339844 156.585938 264.402344 117.308594 291.914062 113.304688 C 310.835938 110.550781 312.820312 118.242188 316.734375 120.382812 C 318.609375 121.402344 320.632812 121.90625 322.804688 121.898438 L 357.644531 121.898438 C 359.273438 121.902344 360.820312 121.574219 362.28125 120.90625 C 363.746094 120.238281 364.976562 119.304688 365.96875 118.105469 C 368.714844 114.746094 371.476562 108.480469 371.476562 96.855469 C 371.476562 80.714844 364.566406 75.238281 360.402344 73.410156 C 359.617188 73.0625 358.796875 72.820312 357.941406 72.671875 C 348.871094 77.863281 349.074219 93.800781 349.074219 93.800781 L 342.730469 93.800781 C 342.730469 93.800781 343.054688 77.144531 350.601562 72.503906 L 324.730469 72.503906 C 323.578125 72.507812 322.46875 72.710938 321.402344 73.117188 C 320.335938 73.519531 319.390625 74.09375 318.5625 74.839844 C 315.402344 77.683594 310.523438 82.457031 302.753906 82.453125 C 288.535156 82.453125 285.429688 80.792969 277.703125 73.34375 C 274.757812 70.503906 267.488281 69.253906 258.316406 69.296875 Z M 192.320312 125.976562 C 189.976562 125.988281 187.734375 127.320312 186.179688 128.515625 C 182.5625 131.308594 175.582031 139.808594 170.621094 149.195312 C 169.363281 151.578125 167.761719 155.371094 167.460938 157.109375 C 167.109375 159.195312 172.3125 159.765625 177.753906 153.488281 C 182.746094 147.726562 187.457031 144.230469 195.691406 136.488281 C 198.914062 133.484375 199.316406 127.734375 193.953125 126.199219 C 193.410156 126.042969 192.863281 125.976562 192.320312 125.976562 Z M 192.320312 125.976562 " fill-opacity="1" fill-rule="nonzero"/></g></svg>