<svg xmlns="http://www.w3.org/2000/svg" xmlns:xlink="http://www.w3.org/1999/xlink" width="1500" zoomAndPan="magnify" viewBox="0 0 1125 374.999991" height="500" preserveAspectRatio="xMidYMid meet" version="1.0"><defs><clipPath id="d9fad9a7fe"><path d="M 197.457031 37.5 L 403 37.5 L 403 337.5 L 197.457031 337.5 Z M 197.457031 37.5 " clip-rule="nonzero"/></clipPath></defs><path fill="#221f20" d="M 485.152344 132.921875 C 492.222656 128.667969 499.707031 126.511719 507.609375 126.511719 L 507.609375 171.382812 L 495.546875 171.382812 C 486.222656 171.382812 479.210938 173.179688 474.578125 176.832031 C 469.945312 180.488281 467.570312 186.777344 467.570312 195.761719 L 467.570312 247.402344 L 425.808594 247.402344 L 425.808594 127.589844 L 467.570312 127.589844 L 467.570312 149.996094 C 472.203125 142.867188 478.082031 137.175781 485.152344 132.921875 Z M 485.152344 132.921875 " fill-opacity="1" fill-rule="nonzero"/><path fill="#221f20" d="M 587.148438 131.546875 C 593.269531 135.199219 597.84375 140.171875 600.8125 146.582031 L 600.8125 127.589844 L 642.335938 127.589844 L 642.335938 247.402344 L 600.8125 247.402344 L 600.8125 228.414062 C 597.84375 234.824219 593.269531 239.855469 587.148438 243.449219 C 581.03125 247.101562 573.785156 248.902344 565.40625 248.902344 C 555.960938 248.902344 547.410156 246.445312 539.804688 241.53125 C 532.199219 236.621094 526.199219 229.492188 521.804688 220.144531 C 517.410156 210.800781 515.210938 199.898438 515.210938 187.378906 C 515.210938 174.855469 517.410156 163.953125 521.804688 154.667969 C 526.199219 145.382812 532.199219 138.316406 539.804688 133.402344 C 547.410156 128.492188 555.960938 126.035156 565.40625 126.035156 C 573.726562 126.09375 580.972656 127.890625 587.148438 131.546875 Z M 563.386719 169.347656 C 559.347656 173.71875 557.328125 179.710938 557.328125 187.378906 C 557.328125 195.226562 559.347656 201.273438 563.386719 205.648438 C 567.429688 210.023438 572.65625 212.179688 579.191406 212.179688 C 585.425781 212.179688 590.535156 209.960938 594.636719 205.527344 C 598.734375 201.09375 600.753906 195.046875 600.753906 187.378906 C 600.753906 179.828125 598.675781 173.839844 594.636719 169.40625 C 590.535156 164.972656 585.367188 162.757812 579.191406 162.757812 C 572.714844 162.816406 567.429688 164.972656 563.386719 169.347656 Z M 563.386719 169.347656 " fill-opacity="1" fill-rule="nonzero"/><path fill="#221f20" d="M 665.148438 89.3125 L 706.910156 89.3125 L 706.910156 247.402344 L 665.148438 247.402344 Z M 665.148438 89.3125 " fill-opacity="1" fill-rule="nonzero"/><path fill="#221f20" d="M 729.960938 89.3125 L 771.722656 89.3125 L 771.722656 247.402344 L 729.960938 247.402344 Z M 729.960938 89.3125 " fill-opacity="1" fill-rule="nonzero"/><path fill="#221f20" d="M 828.515625 127.589844 L 853.9375 194.683594 L 877.464844 127.589844 L 923.621094 127.589844 L 848.410156 304.671875 L 802.671875 304.671875 L 831.722656 242.308594 L 782.117188 127.589844 Z M 828.515625 127.589844 " fill-opacity="1" fill-rule="nonzero"/><g clip-path="url(#d9fad9a7fe)"><path fill="#221f20" d="M 384.164062 46.835938 C 350.125 31.859375 316.917969 38.570312 287.574219 44.441406 C 260.78125 49.832031 237.671875 54.503906 215.394531 44.742188 L 199.117188 82.601562 C 233.097656 97.578125 266.367188 90.867188 295.652344 84.9375 C 314.601562 81.101562 331.769531 77.6875 347.988281 79.425781 C 342.640625 92.425781 337.175781 106.382812 331.414062 121.660156 C 325.652344 136.816406 319.652344 153.167969 313.175781 171.382812 C 304.503906 172.640625 296.007812 174.375 287.632812 176.054688 C 268.5625 179.886719 250.503906 183.542969 233.632812 181.324219 L 197.457031 176.652344 L 212.308594 210.257812 L 274.621094 337.257812 L 310.917969 318.148438 L 262.800781 222.179688 C 273.96875 220.921875 284.898438 218.707031 295.652344 216.550781 C 307.535156 214.152344 318.820312 211.878906 329.75 210.980469 L 342.9375 209.898438 L 347.394531 197.320312 C 355.472656 174.4375 362.71875 154.488281 369.609375 136.394531 C 378.582031 112.734375 386.78125 92.367188 394.738281 74.035156 L 402.9375 55.105469 Z M 384.164062 46.835938 " fill-opacity="1" fill-rule="nonzero"/></g></svg>