<svg xmlns="http://www.w3.org/2000/svg" xmlns:xlink="http://www.w3.org/1999/xlink" width="1500" zoomAndPan="magnify" viewBox="0 0 1125 749.999995" height="1000" preserveAspectRatio="xMidYMid meet" version="1.0"><defs><clipPath id="db3373ac61"><path d="M 413 273.941406 L 906.488281 273.941406 L 906.488281 475.691406 L 413 475.691406 Z M 413 273.941406 " clip-rule="nonzero"/></clipPath><clipPath id="b01645a325"><path d="M 218.738281 279 L 408 279 L 408 444 L 218.738281 444 Z M 218.738281 279 " clip-rule="nonzero"/></clipPath></defs><g clip-path="url(#db3373ac61)"><path fill="#1390fb" d="M 733.40625 273.933594 C 728.613281 273.933594 724.453125 275.660156 720.929688 279.105469 C 720.078125 279.910156 719.316406 280.796875 718.648438 281.761719 C 717.980469 282.726562 717.421875 283.75 716.964844 284.828125 C 716.511719 285.910156 716.171875 287.027344 715.949219 288.175781 C 715.726562 289.328125 715.625 290.488281 715.644531 291.660156 C 715.625 292.835938 715.726562 294 715.945312 295.15625 C 716.160156 296.3125 716.492188 297.433594 716.9375 298.519531 C 717.382812 299.609375 717.933594 300.640625 718.589844 301.617188 C 719.242188 302.59375 719.988281 303.496094 720.824219 304.324219 L 720.832031 304.332031 C 721.636719 305.179688 722.527344 305.941406 723.492188 306.605469 C 724.457031 307.273438 725.480469 307.832031 726.566406 308.289062 C 727.648438 308.742188 728.765625 309.078125 729.917969 309.300781 C 731.070312 309.523438 732.234375 309.625 733.410156 309.605469 C 734 309.601562 734.585938 309.570312 735.171875 309.511719 C 735.753906 309.453125 736.335938 309.363281 736.914062 309.25 C 737.488281 309.132812 738.058594 308.988281 738.621094 308.816406 C 739.183594 308.644531 739.734375 308.445312 740.277344 308.21875 C 740.820312 307.996094 741.351562 307.742188 741.871094 307.464844 C 742.386719 307.1875 742.890625 306.886719 743.378906 306.558594 C 743.871094 306.234375 744.339844 305.882812 744.796875 305.511719 C 745.25 305.140625 745.683594 304.746094 746.101562 304.332031 C 746.515625 303.914062 746.910156 303.480469 747.285156 303.027344 C 747.660156 302.574219 748.007812 302.105469 748.335938 301.617188 C 748.664062 301.128906 748.964844 300.628906 749.242188 300.109375 C 749.523438 299.59375 749.773438 299.0625 750 298.523438 C 750.226562 297.980469 750.425781 297.429688 750.597656 296.867188 C 750.769531 296.304688 750.914062 295.738281 751.03125 295.164062 C 751.148438 294.585938 751.234375 294.007812 751.296875 293.425781 C 751.355469 292.839844 751.386719 292.253906 751.390625 291.667969 C 751.40625 290.496094 751.304688 289.332031 751.082031 288.179688 C 750.859375 287.03125 750.519531 285.914062 750.066406 284.832031 C 749.609375 283.75 749.046875 282.726562 748.378906 281.761719 C 747.710938 280.796875 746.949219 279.910156 746.097656 279.105469 C 745.265625 278.269531 744.363281 277.523438 743.382812 276.871094 C 742.40625 276.21875 741.371094 275.671875 740.28125 275.226562 C 739.191406 274.78125 738.066406 274.449219 736.910156 274.234375 C 735.75 274.015625 734.585938 273.914062 733.40625 273.933594 Z M 878.683594 275.628906 L 878.683594 426.726562 L 906.390625 426.726562 L 906.390625 275.628906 Z M 653.6875 318.671875 C 642.96875 318.671875 633.378906 321.066406 624.917969 325.847656 C 620.75 328.175781 616.980469 331.023438 613.605469 334.394531 C 610.226562 337.765625 607.371094 341.527344 605.039062 345.6875 C 600.246094 354.132812 597.851562 363.703125 597.851562 374.394531 C 597.84375 384.945312 600.242188 394.476562 605.039062 402.988281 C 607.359375 407.167969 610.210938 410.953125 613.585938 414.339844 C 616.964844 417.730469 620.742188 420.59375 624.917969 422.929688 C 633.375 427.714844 642.96875 430.105469 653.699219 430.105469 C 664.273438 430.105469 673.789062 427.710938 682.246094 422.929688 C 686.425781 420.59375 690.203125 417.730469 693.578125 414.34375 C 696.957031 410.953125 699.804688 407.167969 702.125 402.988281 C 706.921875 394.476562 709.320312 384.945312 709.320312 374.394531 C 709.316406 363.84375 706.917969 354.3125 702.125 345.796875 C 699.804688 341.613281 696.953125 337.828125 693.574219 334.4375 C 690.195312 331.050781 686.414062 328.183594 682.234375 325.847656 C 673.777344 321.066406 664.261719 318.671875 653.6875 318.671875 Z M 473.277344 318.679688 C 465.8125 318.675781 459.292969 320.1875 453.71875 323.214844 C 448.148438 326.242188 444.023438 330.007812 441.34375 334.507812 L 439.65625 334.507812 L 439.65625 322.054688 L 413.644531 322.054688 L 413.644531 472.34375 L 441.34375 472.34375 L 441.34375 429.085938 L 439.65625 414.101562 L 441.34375 414.101562 C 444.027344 418.746094 448.152344 422.578125 453.71875 425.605469 C 459.285156 428.628906 465.808594 430.144531 473.277344 430.144531 C 477.75 430.175781 482.132812 429.578125 486.429688 428.359375 C 490.730469 427.136719 494.769531 425.339844 498.550781 422.964844 C 506.238281 418.1875 512.335938 411.574219 516.847656 403.128906 C 521.359375 394.683594 523.613281 385.117188 523.613281 374.421875 C 523.613281 363.734375 521.359375 354.167969 516.847656 345.714844 C 512.335938 337.261719 506.238281 330.640625 498.550781 325.855469 C 494.769531 323.480469 490.730469 321.683594 486.429688 320.460938 C 482.132812 319.242188 477.75 318.648438 473.277344 318.679688 Z M 590.023438 318.679688 C 586.867188 318.675781 583.769531 319.105469 580.734375 319.964844 C 577.699219 320.824219 574.839844 322.085938 572.15625 323.746094 C 566.582031 327.117188 562.527344 331.335938 559.988281 336.40625 L 558.300781 336.40625 L 558.300781 322.054688 L 532.289062 322.054688 L 532.289062 426.726562 L 559.992188 426.726562 L 559.992188 375.105469 C 559.996094 366.359375 562.324219 359.128906 566.972656 353.417969 C 571.625 347.707031 577.824219 344.847656 585.582031 344.847656 C 591.222656 344.847656 597.074219 346.117188 603.136719 348.648438 L 603.136719 321.214844 C 598.941406 319.464844 594.570312 318.621094 590.023438 318.679688 Z M 719.664062 322.054688 L 719.664062 437.78125 C 719.664062 446.167969 716.492188 450.363281 710.148438 450.363281 C 706.496094 450.363281 702.828125 449.378906 699.148438 447.410156 L 699.148438 474.210938 C 703.097656 475.199219 707.824219 475.695312 713.320312 475.703125 C 723.328125 475.707031 731.507812 472.65625 737.851562 466.550781 C 744.195312 460.445312 747.371094 451.007812 747.371094 438.234375 L 747.371094 322.054688 Z M 763.867188 322.054688 L 763.867188 385.578125 C 763.863281 399.503906 767.175781 410.410156 773.804688 418.289062 C 780.433594 426.167969 790.15625 430.105469 802.972656 430.105469 C 809.882812 430.105469 816.15625 428.59375 821.796875 425.570312 C 824.542969 424.125 827.0625 422.355469 829.355469 420.261719 C 831.652344 418.171875 833.640625 415.824219 835.332031 413.226562 L 837.027344 413.226562 L 837.027344 426.726562 L 863.039062 426.726562 L 863.039062 322.058594 L 835.332031 322.058594 L 835.332031 373.96875 C 835.355469 382.835938 833.179688 390.152344 828.804688 395.921875 C 824.433594 401.6875 818.515625 404.574219 811.042969 404.574219 C 804.839844 404.570312 800.046875 402.636719 796.664062 398.769531 C 793.28125 394.902344 791.585938 389.378906 791.585938 382.199219 L 791.585938 322.054688 Z M 467.78125 344.203125 C 470.230469 344.199219 472.636719 344.511719 475.003906 345.136719 C 477.371094 345.761719 479.617188 346.683594 481.742188 347.898438 C 483.9375 349.140625 485.925781 350.660156 487.703125 352.453125 C 489.480469 354.246094 490.980469 356.242188 492.207031 358.449219 C 494.816406 363.023438 496.121094 368.335938 496.121094 374.382812 C 496.121094 380.292969 494.816406 385.539062 492.207031 390.113281 C 490.976562 392.328125 489.46875 394.335938 487.695312 396.144531 C 485.917969 397.953125 483.933594 399.496094 481.742188 400.769531 L 481.742188 400.773438 C 480.691406 401.390625 479.609375 401.933594 478.488281 402.402344 C 477.367188 402.875 476.21875 403.273438 475.046875 403.59375 C 473.875 403.914062 472.683594 404.15625 471.480469 404.320312 C 470.277344 404.484375 469.066406 404.570312 467.847656 404.574219 C 466.632812 404.578125 465.421875 404.503906 464.214844 404.347656 C 463.007812 404.191406 461.820312 403.957031 460.644531 403.644531 C 459.46875 403.332031 458.316406 402.945312 457.195312 402.480469 C 456.070312 402.019531 454.980469 401.484375 453.929688 400.875 C 451.753906 399.621094 449.785156 398.097656 448.027344 396.304688 C 446.265625 394.515625 444.78125 392.519531 443.566406 390.324219 C 440.957031 385.753906 439.65625 380.441406 439.65625 374.394531 C 439.65625 368.347656 440.957031 363.03125 443.566406 358.449219 C 444.78125 356.253906 446.269531 354.257812 448.027344 352.46875 C 449.785156 350.675781 451.753906 349.152344 453.929688 347.898438 C 456.03125 346.679688 458.257812 345.753906 460.609375 345.128906 C 462.957031 344.503906 465.347656 344.195312 467.78125 344.203125 Z M 653.683594 344.214844 C 656.113281 344.207031 658.503906 344.515625 660.855469 345.140625 C 663.203125 345.769531 665.429688 346.691406 667.53125 347.910156 C 669.699219 349.160156 671.652344 350.679688 673.390625 352.472656 C 675.132812 354.265625 676.59375 356.261719 677.777344 358.460938 C 680.316406 363.03125 681.585938 368.34375 681.585938 374.394531 C 681.585938 380.445312 680.316406 385.753906 677.777344 390.324219 C 676.597656 392.523438 675.132812 394.519531 673.394531 396.3125 C 671.652344 398.105469 669.699219 399.628906 667.53125 400.875 C 665.429688 402.097656 663.203125 403.019531 660.855469 403.648438 C 658.503906 404.273438 656.113281 404.582031 653.683594 404.574219 C 651.214844 404.59375 648.789062 404.289062 646.402344 403.660156 C 644.015625 403.035156 641.753906 402.105469 639.617188 400.875 C 637.453125 399.628906 635.496094 398.105469 633.757812 396.316406 C 632.015625 394.523438 630.554688 392.523438 629.371094 390.324219 C 626.832031 385.753906 625.5625 380.445312 625.5625 374.394531 C 625.5625 368.34375 626.832031 363.03125 629.371094 358.460938 C 630.554688 356.261719 632.015625 354.265625 633.757812 352.472656 C 635.5 350.679688 637.453125 349.15625 639.617188 347.910156 C 641.757812 346.679688 644.019531 345.753906 646.402344 345.128906 C 648.789062 344.5 651.214844 344.195312 653.683594 344.214844 Z M 653.683594 344.214844 " fill-opacity="1" fill-rule="nonzero"/></g><g clip-path="url(#b01645a325)"><path fill="#3a3a3a" d="M 315.855469 279.148438 C 303.460938 279.207031 286.777344 282.175781 274.867188 286.933594 C 256.949219 294.085938 232.511719 316.742188 220.984375 344.046875 C 220.132812 346.046875 218.707031 349.484375 218.726562 350.820312 C 218.75 352.53125 222.34375 352.710938 226.761719 347.640625 C 232.757812 340.753906 244.800781 324.128906 257.753906 321.167969 C 266.851562 319.082031 273.402344 320.847656 273.402344 334.375 L 273.402344 443.535156 L 316.273438 443.535156 L 316.273438 354.597656 L 298.101562 354.597656 L 298.101562 349.875 L 321.550781 349.875 C 321.550781 349.875 320.785156 318.054688 343.09375 314.808594 C 358.4375 312.578125 360.042969 318.808594 363.21875 320.542969 C 364.738281 321.367188 366.378906 321.777344 368.136719 321.769531 L 396.382812 321.769531 C 397.707031 321.777344 398.960938 321.507812 400.144531 320.96875 C 401.332031 320.425781 402.328125 319.671875 403.136719 318.699219 C 405.359375 315.976562 407.601562 310.898438 407.601562 301.480469 C 407.601562 288.402344 402 283.96875 398.621094 282.484375 C 397.984375 282.203125 397.320312 282.003906 396.628906 281.886719 C 389.273438 286.089844 389.4375 299.003906 389.4375 299.003906 L 384.292969 299.003906 C 384.292969 299.003906 384.558594 285.511719 390.675781 281.75 L 369.703125 281.75 C 368.765625 281.753906 367.867188 281.917969 367.003906 282.246094 C 366.136719 282.574219 365.371094 283.039062 364.699219 283.644531 C 362.136719 285.945312 358.183594 289.8125 351.882812 289.8125 C 340.355469 289.8125 337.835938 288.464844 331.574219 282.429688 C 329.183594 280.128906 323.292969 279.117188 315.855469 279.148438 Z M 262.347656 325.078125 C 260.449219 325.085938 258.628906 326.164062 257.367188 327.132812 C 254.433594 329.394531 248.777344 336.285156 244.753906 343.890625 C 243.734375 345.820312 242.433594 348.894531 242.191406 350.300781 C 241.90625 351.992188 246.125 352.453125 250.539062 347.367188 C 254.585938 342.699219 258.40625 339.863281 265.078125 333.59375 C 267.695312 331.15625 268.019531 326.5 263.671875 325.257812 C 263.230469 325.128906 262.789062 325.074219 262.347656 325.078125 Z M 262.347656 325.078125 " fill-opacity="1" fill-rule="nonzero"/></g></svg>