<svg xmlns="http://www.w3.org/2000/svg" xmlns:xlink="http://www.w3.org/1999/xlink" width="1500" zoomAndPan="magnify" viewBox="0 0 1125 749.999995" height="1000" preserveAspectRatio="xMidYMid meet" version="1.0"><defs><clipPath id="21e3bc192a"><path d="M 310.421875 271.417969 L 453 271.417969 L 453 478.417969 L 310.421875 478.417969 Z M 310.421875 271.417969 " clip-rule="nonzero"/></clipPath></defs><path fill="#221f20" d="M 509.121094 337.257812 C 514 334.324219 519.171875 332.835938 524.628906 332.835938 L 524.628906 363.796875 L 516.300781 363.796875 C 509.859375 363.796875 505.015625 365.035156 501.816406 367.558594 C 498.617188 370.082031 496.976562 374.421875 496.976562 380.621094 L 496.976562 416.253906 L 468.132812 416.253906 L 468.132812 333.578125 L 496.976562 333.578125 L 496.976562 349.039062 C 500.175781 344.121094 504.238281 340.195312 509.121094 337.257812 Z M 509.121094 337.257812 " fill-opacity="1" fill-rule="nonzero"/><path fill="#221f20" d="M 579.5625 336.308594 C 583.789062 338.828125 586.949219 342.261719 589 346.683594 L 589 333.582031 L 617.679688 333.582031 L 617.679688 416.253906 L 589 416.253906 L 589 403.152344 C 586.949219 407.574219 583.789062 411.046875 579.5625 413.527344 C 575.339844 416.046875 570.332031 417.289062 564.546875 417.289062 C 558.023438 417.289062 552.117188 415.59375 546.863281 412.203125 C 541.613281 408.8125 537.46875 403.894531 534.433594 397.445312 C 531.398438 390.996094 529.878906 383.472656 529.878906 374.835938 C 529.878906 366.195312 531.398438 358.671875 534.433594 352.265625 C 537.46875 345.855469 541.613281 340.980469 546.863281 337.589844 C 552.117188 334.199219 558.023438 332.503906 564.546875 332.503906 C 570.292969 332.546875 575.296875 333.785156 579.5625 336.308594 Z M 563.152344 362.390625 C 560.363281 365.410156 558.96875 369.542969 558.96875 374.835938 C 558.96875 380.25 560.363281 384.425781 563.152344 387.441406 C 565.941406 390.460938 569.554688 391.949219 574.066406 391.949219 C 578.375 391.949219 581.902344 390.417969 584.734375 387.359375 C 587.5625 384.300781 588.960938 380.125 588.960938 374.835938 C 588.960938 369.625 587.523438 365.492188 584.734375 362.433594 C 581.902344 359.375 578.332031 357.84375 574.066406 357.84375 C 569.59375 357.886719 565.941406 359.375 563.152344 362.390625 Z M 563.152344 362.390625 " fill-opacity="1" fill-rule="nonzero"/><path fill="#221f20" d="M 633.433594 307.164062 L 662.277344 307.164062 L 662.277344 416.253906 L 633.433594 416.253906 Z M 633.433594 307.164062 " fill-opacity="1" fill-rule="nonzero"/><path fill="#221f20" d="M 678.195312 307.164062 L 707.039062 307.164062 L 707.039062 416.253906 L 678.195312 416.253906 Z M 678.195312 307.164062 " fill-opacity="1" fill-rule="nonzero"/><path fill="#221f20" d="M 746.261719 333.578125 L 763.820312 379.875 L 780.070312 333.578125 L 811.945312 333.578125 L 760.003906 455.769531 L 728.414062 455.769531 L 748.476562 412.738281 L 714.21875 333.578125 Z M 746.261719 333.578125 " fill-opacity="1" fill-rule="nonzero"/><g clip-path="url(#21e3bc192a)"><path fill="#221f20" d="M 439.375 277.855469 C 415.863281 267.523438 392.929688 272.152344 372.660156 276.203125 C 354.15625 279.921875 338.199219 283.148438 322.8125 276.410156 L 311.570312 302.535156 C 335.039062 312.867188 358.015625 308.238281 378.242188 304.148438 C 391.328125 301.5 403.1875 299.144531 414.386719 300.34375 C 410.695312 309.3125 406.921875 318.945312 402.941406 329.488281 C 398.960938 339.945312 394.816406 351.230469 390.34375 363.796875 C 384.355469 364.664062 378.488281 365.863281 372.703125 367.019531 C 359.53125 369.664062 347.058594 372.1875 335.410156 370.65625 L 310.421875 367.433594 L 320.679688 390.625 L 363.71875 478.257812 L 388.785156 465.074219 L 355.554688 398.851562 C 363.265625 397.980469 370.816406 396.453125 378.242188 394.964844 C 386.445312 393.3125 394.242188 391.738281 401.792969 391.121094 L 410.898438 390.375 L 413.976562 381.695312 C 419.558594 365.90625 424.5625 352.140625 429.320312 339.65625 C 435.515625 323.328125 441.179688 309.273438 446.675781 296.625 L 452.339844 283.5625 Z M 439.375 277.855469 " fill-opacity="1" fill-rule="nonzero"/></g></svg>