<svg xmlns="http://www.w3.org/2000/svg" xmlns:xlink="http://www.w3.org/1999/xlink" width="1500" zoomAndPan="magnify" viewBox="0 0 1125 749.999995" height="1000" preserveAspectRatio="xMidYMid meet" version="1.0"><defs><clipPath id="4cfdfeeacd"><path d="M 153 310.75 L 282 310.75 L 282 439 L 153 439 Z M 153 310.75 " clip-rule="nonzero"/></clipPath><clipPath id="236d5a85b5"><path d="M 189.902344 374.90625 C 189.902344 373.117188 190.078125 371.34375 190.429688 369.585938 C 190.777344 367.832031 191.296875 366.125 191.984375 364.472656 C 192.667969 362.820312 193.511719 361.246094 194.507812 359.757812 C 195.503906 358.269531 196.636719 356.894531 197.90625 355.628906 C 199.175781 354.363281 200.554688 353.230469 202.046875 352.238281 C 203.539062 351.242188 205.113281 350.402344 206.769531 349.71875 C 208.425781 349.03125 210.136719 348.515625 211.894531 348.167969 C 213.65625 347.816406 215.429688 347.644531 217.226562 347.644531 C 219.019531 347.644531 220.796875 347.816406 222.554688 348.167969 C 224.316406 348.515625 226.023438 349.03125 227.679688 349.71875 C 229.339844 350.402344 230.914062 351.242188 232.40625 352.238281 C 233.894531 353.230469 235.277344 354.363281 236.542969 355.628906 C 237.8125 356.894531 238.945312 358.269531 239.941406 359.757812 C 240.9375 361.246094 241.78125 362.820312 242.46875 364.472656 C 243.152344 366.125 243.671875 367.832031 244.023438 369.585938 C 244.371094 371.34375 244.546875 373.117188 244.546875 374.90625 C 244.546875 376.695312 244.371094 378.46875 244.023438 380.222656 C 243.671875 381.980469 243.152344 383.683594 242.46875 385.339844 C 241.78125 386.992188 240.9375 388.5625 239.941406 390.050781 C 238.945312 391.539062 237.8125 392.917969 236.542969 394.183594 C 235.277344 395.449219 233.894531 396.578125 232.40625 397.574219 C 230.914062 398.566406 229.339844 399.40625 227.679688 400.09375 C 226.023438 400.777344 224.316406 401.292969 222.554688 401.644531 C 220.796875 401.992188 219.019531 402.167969 217.226562 402.167969 C 215.429688 402.167969 213.65625 401.992188 211.894531 401.644531 C 210.136719 401.292969 208.425781 400.777344 206.769531 400.09375 C 205.113281 399.40625 203.539062 398.566406 202.046875 397.574219 C 200.554688 396.578125 199.175781 395.449219 197.90625 394.183594 C 196.636719 392.917969 195.503906 391.539062 194.507812 390.050781 C 193.511719 388.5625 192.667969 386.992188 191.984375 385.339844 C 191.296875 383.683594 190.777344 381.980469 190.429688 380.222656 C 190.078125 378.46875 189.902344 376.695312 189.902344 374.90625 M 153.019531 374.90625 C 153.019531 377.003906 153.125 379.097656 153.332031 381.183594 C 153.535156 383.269531 153.84375 385.34375 154.253906 387.402344 C 154.664062 389.457031 155.175781 391.492188 155.785156 393.496094 C 156.394531 395.503906 157.101562 397.476562 157.90625 399.417969 C 158.710938 401.355469 159.609375 403.25 160.601562 405.097656 C 161.589844 406.949219 162.671875 408.746094 163.839844 410.488281 C 165.007812 412.234375 166.257812 413.917969 167.589844 415.539062 C 168.925781 417.160156 170.335938 418.710938 171.820312 420.195312 C 173.308594 421.679688 174.863281 423.085938 176.488281 424.417969 C 178.113281 425.746094 179.800781 426.996094 181.546875 428.160156 C 183.296875 429.324219 185.097656 430.402344 186.953125 431.390625 C 188.804688 432.382812 190.703125 433.277344 192.644531 434.078125 C 194.589844 434.882812 196.566406 435.589844 198.578125 436.195312 C 200.589844 436.804688 202.625 437.316406 204.6875 437.722656 C 206.75 438.132812 208.828125 438.441406 210.917969 438.648438 C 213.011719 438.851562 215.109375 438.953125 217.210938 438.953125 C 219.3125 438.953125 221.410156 438.851562 223.5 438.648438 C 225.59375 438.441406 227.671875 438.132812 229.734375 437.722656 C 231.792969 437.316406 233.832031 436.804688 235.84375 436.195312 C 237.855469 435.589844 239.832031 434.882812 241.773438 434.078125 C 243.714844 433.277344 245.613281 432.382812 247.46875 431.390625 C 249.324219 430.402344 251.125 429.324219 252.871094 428.160156 C 254.621094 426.996094 256.304688 425.746094 257.929688 424.417969 C 259.554688 423.085938 261.113281 421.679688 262.597656 420.195312 C 264.085938 418.710938 265.496094 417.160156 266.828125 415.539062 C 268.164062 413.917969 269.414062 412.234375 270.582031 410.488281 C 271.75 408.746094 272.828125 406.949219 273.820312 405.097656 C 274.8125 403.25 275.707031 401.355469 276.511719 399.417969 C 277.316406 397.476562 278.023438 395.503906 278.636719 393.496094 C 279.246094 391.492188 279.753906 389.457031 280.164062 387.402344 C 280.574219 385.34375 280.882812 383.269531 281.089844 381.183594 C 281.296875 379.097656 281.398438 377.003906 281.398438 374.90625 C 281.398438 372.808594 281.296875 370.714844 281.089844 368.628906 C 280.882812 366.539062 280.574219 364.46875 280.164062 362.410156 C 279.753906 360.351562 279.246094 358.320312 278.636719 356.3125 C 278.023438 354.304688 277.316406 352.332031 276.511719 350.394531 C 275.707031 348.457031 274.8125 346.5625 273.820312 344.710938 C 272.828125 342.863281 271.75 341.066406 270.582031 339.320312 C 269.414062 337.578125 268.164062 335.894531 266.828125 334.273438 C 265.496094 332.652344 264.085938 331.097656 262.597656 329.617188 C 261.113281 328.132812 259.554688 326.726562 257.929688 325.394531 C 256.304688 324.0625 254.621094 322.816406 252.871094 321.648438 C 251.125 320.484375 249.324219 319.40625 247.46875 318.417969 C 245.613281 317.429688 243.714844 316.535156 241.773438 315.730469 C 239.832031 314.929688 237.855469 314.222656 235.84375 313.613281 C 233.832031 313.003906 231.792969 312.496094 229.734375 312.085938 C 227.671875 311.675781 225.59375 311.371094 223.5 311.164062 C 221.410156 310.957031 219.3125 310.855469 217.210938 310.855469 C 215.109375 310.859375 213.011719 310.964844 210.921875 311.171875 C 208.832031 311.378906 206.753906 311.691406 204.695312 312.101562 C 202.632812 312.511719 200.597656 313.023438 198.585938 313.632812 C 196.578125 314.246094 194.601562 314.953125 192.660156 315.753906 C 190.71875 316.558594 188.824219 317.457031 186.96875 318.445312 C 185.117188 319.433594 183.316406 320.511719 181.570312 321.679688 C 179.824219 322.84375 178.136719 324.089844 176.511719 325.421875 C 174.890625 326.753906 173.335938 328.160156 171.847656 329.640625 C 170.363281 331.125 168.953125 332.675781 167.617188 334.296875 C 166.285156 335.917969 165.035156 337.597656 163.867188 339.34375 C 162.699219 341.085938 161.617188 342.882812 160.628906 344.730469 C 159.636719 346.578125 158.738281 348.472656 157.929688 350.410156 C 157.125 352.34375 156.417969 354.316406 155.804688 356.324219 C 155.195312 358.328125 154.683594 360.359375 154.269531 362.417969 C 153.855469 364.472656 153.546875 366.542969 153.339844 368.628906 C 153.128906 370.714844 153.023438 372.808594 153.019531 374.90625 " clip-rule="nonzero"/></clipPath><clipPath id="44bbb51be6"><path d="M 107.5 329.785156 L 262.460938 265.476562 L 326.859375 420.085938 L 171.945312 484.390625 Z M 107.5 329.785156 " clip-rule="nonzero"/></clipPath><linearGradient x1="-1851.992683" gradientTransform="matrix(-40.623817, -97.476432, 97.688537, -40.53561, 107529.069244, -255807.408192)" y1="-1868.38" x2="-1850.406359" gradientUnits="userSpaceOnUse" y2="-1868.38" id="7cc8763f5d"><stop stop-opacity="1" stop-color="rgb(27.839661%, 48.629761%, 84.709167%)" offset="0"/><stop stop-opacity="1" stop-color="rgb(27.806091%, 48.480225%, 84.609985%)" offset="0.0625"/><stop stop-opacity="1" stop-color="rgb(27.748108%, 48.219299%, 84.434509%)" offset="0.0703125"/><stop stop-opacity="1" stop-color="rgb(27.69928%, 47.994995%, 84.284973%)" offset="0.078125"/><stop stop-opacity="1" stop-color="rgb(27.648926%, 47.770691%, 84.135437%)" offset="0.0859375"/><stop stop-opacity="1" stop-color="rgb(27.600098%, 47.546387%, 83.985901%)" offset="0.09375"/><stop stop-opacity="1" stop-color="rgb(27.549744%, 47.322083%, 83.836365%)" offset="0.101562"/><stop stop-opacity="1" stop-color="rgb(27.500916%, 47.097778%, 83.685303%)" offset="0.109375"/><stop stop-opacity="1" stop-color="rgb(27.450562%, 46.875%, 83.535767%)" offset="0.117188"/><stop stop-opacity="1" stop-color="rgb(27.401733%, 46.650696%, 83.38623%)" offset="0.125"/><stop stop-opacity="1" stop-color="rgb(27.352905%, 46.426392%, 83.236694%)" offset="0.132812"/><stop stop-opacity="1" stop-color="rgb(27.302551%, 46.202087%, 83.087158%)" offset="0.140625"/><stop stop-opacity="1" stop-color="rgb(27.253723%, 45.977783%, 82.937622%)" offset="0.148438"/><stop stop-opacity="1" stop-color="rgb(27.203369%, 45.753479%, 82.78656%)" offset="0.15625"/><stop stop-opacity="1" stop-color="rgb(27.154541%, 45.529175%, 82.637024%)" offset="0.164062"/><stop stop-opacity="1" stop-color="rgb(27.104187%, 45.304871%, 82.487488%)" offset="0.171875"/><stop stop-opacity="1" stop-color="rgb(27.043152%, 45.043945%, 82.312012%)" offset="0.179688"/><stop stop-opacity="1" stop-color="rgb(26.963806%, 44.718933%, 82.095337%)" offset="0.1875"/><stop stop-opacity="1" stop-color="rgb(26.875305%, 44.364929%, 81.858826%)" offset="0.195312"/><stop stop-opacity="1" stop-color="rgb(26.786804%, 44.010925%, 81.62384%)" offset="0.203125"/><stop stop-opacity="1" stop-color="rgb(26.698303%, 43.656921%, 81.387329%)" offset="0.210938"/><stop stop-opacity="1" stop-color="rgb(26.609802%, 43.301392%, 81.150818%)" offset="0.21875"/><stop stop-opacity="1" stop-color="rgb(26.521301%, 42.947388%, 80.915833%)" offset="0.226563"/><stop stop-opacity="1" stop-color="rgb(26.434326%, 42.593384%, 80.679321%)" offset="0.234375"/><stop stop-opacity="1" stop-color="rgb(26.345825%, 42.23938%, 80.444336%)" offset="0.242188"/><stop stop-opacity="1" stop-color="rgb(26.257324%, 41.885376%, 80.207825%)" offset="0.25"/><stop stop-opacity="1" stop-color="rgb(26.168823%, 41.531372%, 79.971313%)" offset="0.257812"/><stop stop-opacity="1" stop-color="rgb(26.080322%, 41.177368%, 79.736328%)" offset="0.265625"/><stop stop-opacity="1" stop-color="rgb(25.991821%, 40.823364%, 79.499817%)" offset="0.273438"/><stop stop-opacity="1" stop-color="rgb(25.90332%, 40.46936%, 79.264832%)" offset="0.28125"/><stop stop-opacity="1" stop-color="rgb(25.814819%, 40.115356%, 79.02832%)" offset="0.289062"/><stop stop-opacity="1" stop-color="rgb(25.726318%, 39.761353%, 78.793335%)" offset="0.296875"/><stop stop-opacity="1" stop-color="rgb(25.637817%, 39.407349%, 78.556824%)" offset="0.304688"/><stop stop-opacity="1" stop-color="rgb(25.549316%, 39.053345%, 78.320312%)" offset="0.3125"/><stop stop-opacity="1" stop-color="rgb(25.460815%, 38.699341%, 78.085327%)" offset="0.320313"/><stop stop-opacity="1" stop-color="rgb(25.372314%, 38.345337%, 77.848816%)" offset="0.328125"/><stop stop-opacity="1" stop-color="rgb(25.283813%, 37.991333%, 77.613831%)" offset="0.335938"/><stop stop-opacity="1" stop-color="rgb(25.195312%, 37.637329%, 77.377319%)" offset="0.34375"/><stop stop-opacity="1" stop-color="rgb(25.106812%, 37.283325%, 77.140808%)" offset="0.351562"/><stop stop-opacity="1" stop-color="rgb(25.018311%, 36.929321%, 76.905823%)" offset="0.359375"/><stop stop-opacity="1" stop-color="rgb(24.931335%, 36.575317%, 76.669312%)" offset="0.367188"/><stop stop-opacity="1" stop-color="rgb(24.842834%, 36.221313%, 76.434326%)" offset="0.375"/><stop stop-opacity="1" stop-color="rgb(24.754333%, 35.86731%, 76.197815%)" offset="0.382812"/><stop stop-opacity="1" stop-color="rgb(24.655151%, 35.449219%, 75.917053%)" offset="0.386719"/><stop stop-opacity="1" stop-color="rgb(24.601746%, 35.20813%, 75.75531%)" offset="0.390625"/><stop stop-opacity="1" stop-color="rgb(24.546814%, 34.967041%, 75.592041%)" offset="0.394531"/><stop stop-opacity="1" stop-color="rgb(24.491882%, 34.725952%, 75.428772%)" offset="0.398438"/><stop stop-opacity="1" stop-color="rgb(24.436951%, 34.483337%, 75.265503%)" offset="0.402344"/><stop stop-opacity="1" stop-color="rgb(24.383545%, 34.242249%, 75.102234%)" offset="0.40625"/><stop stop-opacity="1" stop-color="rgb(24.328613%, 34.00116%, 74.938965%)" offset="0.410156"/><stop stop-opacity="1" stop-color="rgb(24.275208%, 33.760071%, 74.777222%)" offset="0.414062"/><stop stop-opacity="1" stop-color="rgb(24.220276%, 33.517456%, 74.613953%)" offset="0.417969"/><stop stop-opacity="1" stop-color="rgb(24.16687%, 33.276367%, 74.450684%)" offset="0.421875"/><stop stop-opacity="1" stop-color="rgb(24.111938%, 33.035278%, 74.287415%)" offset="0.425781"/><stop stop-opacity="1" stop-color="rgb(24.058533%, 32.794189%, 74.125671%)" offset="0.429687"/><stop stop-opacity="1" stop-color="rgb(24.003601%, 32.551575%, 73.962402%)" offset="0.433594"/><stop stop-opacity="1" stop-color="rgb(23.948669%, 32.310486%, 73.799133%)" offset="0.4375"/><stop stop-opacity="1" stop-color="rgb(23.893738%, 32.069397%, 73.635864%)" offset="0.441406"/><stop stop-opacity="1" stop-color="rgb(23.840332%, 31.828308%, 73.472595%)" offset="0.445312"/><stop stop-opacity="1" stop-color="rgb(23.7854%, 31.585693%, 73.309326%)" offset="0.449219"/><stop stop-opacity="1" stop-color="rgb(23.731995%, 31.344604%, 73.147583%)" offset="0.453125"/><stop stop-opacity="1" stop-color="rgb(23.677063%, 31.103516%, 72.984314%)" offset="0.457031"/><stop stop-opacity="1" stop-color="rgb(23.623657%, 30.862427%, 72.821045%)" offset="0.460937"/><stop stop-opacity="1" stop-color="rgb(23.568726%, 30.619812%, 72.657776%)" offset="0.464844"/><stop stop-opacity="1" stop-color="rgb(23.51532%, 30.378723%, 72.494507%)" offset="0.46875"/><stop stop-opacity="1" stop-color="rgb(23.460388%, 30.137634%, 72.331238%)" offset="0.472656"/><stop stop-opacity="1" stop-color="rgb(23.405457%, 29.896545%, 72.169495%)" offset="0.476562"/><stop stop-opacity="1" stop-color="rgb(23.350525%, 29.653931%, 72.006226%)" offset="0.480469"/><stop stop-opacity="1" stop-color="rgb(23.297119%, 29.412842%, 71.842957%)" offset="0.484375"/><stop stop-opacity="1" stop-color="rgb(23.242188%, 29.171753%, 71.679688%)" offset="0.488281"/><stop stop-opacity="1" stop-color="rgb(23.188782%, 28.930664%, 71.517944%)" offset="0.492188"/><stop stop-opacity="1" stop-color="rgb(23.13385%, 28.688049%, 71.354675%)" offset="0.496094"/><stop stop-opacity="1" stop-color="rgb(23.080444%, 28.44696%, 71.191406%)" offset="0.5"/><stop stop-opacity="1" stop-color="rgb(23.025513%, 28.205872%, 71.028137%)" offset="0.503906"/><stop stop-opacity="1" stop-color="rgb(22.970581%, 27.964783%, 70.864868%)" offset="0.507812"/><stop stop-opacity="1" stop-color="rgb(22.915649%, 27.722168%, 70.701599%)" offset="0.511719"/><stop stop-opacity="1" stop-color="rgb(22.862244%, 27.481079%, 70.539856%)" offset="0.515625"/><stop stop-opacity="1" stop-color="rgb(22.807312%, 27.23999%, 70.376587%)" offset="0.519531"/><stop stop-opacity="1" stop-color="rgb(22.753906%, 26.998901%, 70.213318%)" offset="0.523438"/><stop stop-opacity="1" stop-color="rgb(22.698975%, 26.756287%, 70.050049%)" offset="0.527344"/><stop stop-opacity="1" stop-color="rgb(22.645569%, 26.515198%, 69.888306%)" offset="0.53125"/><stop stop-opacity="1" stop-color="rgb(22.590637%, 26.274109%, 69.725037%)" offset="0.535156"/><stop stop-opacity="1" stop-color="rgb(22.537231%, 26.03302%, 69.561768%)" offset="0.539063"/><stop stop-opacity="1" stop-color="rgb(22.4823%, 25.790405%, 69.398499%)" offset="0.542969"/><stop stop-opacity="1" stop-color="rgb(22.427368%, 25.549316%, 69.235229%)" offset="0.546875"/><stop stop-opacity="1" stop-color="rgb(22.372437%, 25.308228%, 69.07196%)" offset="0.550781"/><stop stop-opacity="1" stop-color="rgb(22.319031%, 25.067139%, 68.910217%)" offset="0.554688"/><stop stop-opacity="1" stop-color="rgb(22.264099%, 24.824524%, 68.746948%)" offset="0.558594"/><stop stop-opacity="1" stop-color="rgb(22.210693%, 24.583435%, 68.583679%)" offset="0.5625"/><stop stop-opacity="1" stop-color="rgb(22.155762%, 24.342346%, 68.42041%)" offset="0.566406"/><stop stop-opacity="1" stop-color="rgb(22.102356%, 24.101257%, 68.257141%)" offset="0.570312"/><stop stop-opacity="1" stop-color="rgb(22.047424%, 23.858643%, 68.093872%)" offset="0.574219"/><stop stop-opacity="1" stop-color="rgb(21.994019%, 23.617554%, 67.932129%)" offset="0.578125"/><stop stop-opacity="1" stop-color="rgb(21.939087%, 23.376465%, 67.76886%)" offset="0.582031"/><stop stop-opacity="1" stop-color="rgb(21.884155%, 23.135376%, 67.605591%)" offset="0.585938"/><stop stop-opacity="1" stop-color="rgb(21.829224%, 22.892761%, 67.442322%)" offset="0.589844"/><stop stop-opacity="1" stop-color="rgb(21.775818%, 22.651672%, 67.280579%)" offset="0.59375"/><stop stop-opacity="1" stop-color="rgb(21.720886%, 22.410583%, 67.11731%)" offset="0.597656"/><stop stop-opacity="1" stop-color="rgb(21.66748%, 22.169495%, 66.954041%)" offset="0.601562"/><stop stop-opacity="1" stop-color="rgb(21.612549%, 21.92688%, 66.790771%)" offset="0.605469"/><stop stop-opacity="1" stop-color="rgb(21.559143%, 21.685791%, 66.627502%)" offset="0.609375"/><stop stop-opacity="1" stop-color="rgb(21.504211%, 21.444702%, 66.464233%)" offset="0.613281"/><stop stop-opacity="1" stop-color="rgb(21.450806%, 21.203613%, 66.30249%)" offset="0.617188"/><stop stop-opacity="1" stop-color="rgb(21.395874%, 20.960999%, 66.139221%)" offset="0.621094"/><stop stop-opacity="1" stop-color="rgb(21.340942%, 20.71991%, 65.975952%)" offset="0.625"/><stop stop-opacity="1" stop-color="rgb(21.286011%, 20.478821%, 65.812683%)" offset="0.628906"/><stop stop-opacity="1" stop-color="rgb(21.232605%, 20.237732%, 65.649414%)" offset="0.632813"/><stop stop-opacity="1" stop-color="rgb(21.176147%, 19.98291%, 65.47699%)" offset="0.636719"/><stop stop-opacity="1" stop-color="rgb(21.11969%, 19.729614%, 65.304565%)" offset="0.640625"/><stop stop-opacity="1" stop-color="rgb(21.061707%, 19.464111%, 65.12146%)" offset="0.644531"/><stop stop-opacity="1" stop-color="rgb(21.003723%, 19.198608%, 64.938354%)" offset="0.648438"/><stop stop-opacity="1" stop-color="rgb(20.94574%, 18.933105%, 64.755249%)" offset="0.652344"/><stop stop-opacity="1" stop-color="rgb(20.887756%, 18.667603%, 64.573669%)" offset="0.65625"/><stop stop-opacity="1" stop-color="rgb(20.829773%, 18.4021%, 64.390564%)" offset="0.660156"/><stop stop-opacity="1" stop-color="rgb(20.77179%, 18.136597%, 64.208984%)" offset="0.664062"/><stop stop-opacity="1" stop-color="rgb(20.71228%, 17.871094%, 64.025879%)" offset="0.667969"/><stop stop-opacity="1" stop-color="rgb(20.654297%, 17.605591%, 63.842773%)" offset="0.671875"/><stop stop-opacity="1" stop-color="rgb(20.596313%, 17.340088%, 63.659668%)" offset="0.675781"/><stop stop-opacity="1" stop-color="rgb(20.53833%, 17.074585%, 63.478088%)" offset="0.679688"/><stop stop-opacity="1" stop-color="rgb(20.480347%, 16.809082%, 63.294983%)" offset="0.683594"/><stop stop-opacity="1" stop-color="rgb(20.422363%, 16.543579%, 63.113403%)" offset="0.6875"/><stop stop-opacity="1" stop-color="rgb(20.362854%, 16.278076%, 62.930298%)" offset="0.691406"/><stop stop-opacity="1" stop-color="rgb(20.304871%, 16.012573%, 62.747192%)" offset="0.695312"/><stop stop-opacity="1" stop-color="rgb(20.246887%, 15.74707%, 62.564087%)" offset="0.699219"/><stop stop-opacity="1" stop-color="rgb(20.188904%, 15.481567%, 62.382507%)" offset="0.703125"/><stop stop-opacity="1" stop-color="rgb(20.13092%, 15.214539%, 62.199402%)" offset="0.707031"/><stop stop-opacity="1" stop-color="rgb(20.072937%, 14.949036%, 62.016296%)" offset="0.710938"/><stop stop-opacity="1" stop-color="rgb(20.014954%, 14.683533%, 61.833191%)" offset="0.714844"/><stop stop-opacity="1" stop-color="rgb(19.95697%, 14.41803%, 61.651611%)" offset="0.71875"/><stop stop-opacity="1" stop-color="rgb(19.897461%, 14.152527%, 61.468506%)" offset="0.722656"/><stop stop-opacity="1" stop-color="rgb(19.839478%, 13.887024%, 61.286926%)" offset="0.726562"/><stop stop-opacity="1" stop-color="rgb(19.781494%, 13.621521%, 61.103821%)" offset="0.730469"/><stop stop-opacity="1" stop-color="rgb(19.723511%, 13.356018%, 60.920715%)" offset="0.734375"/><stop stop-opacity="1" stop-color="rgb(19.665527%, 13.090515%, 60.73761%)" offset="0.738281"/><stop stop-opacity="1" stop-color="rgb(19.607544%, 12.825012%, 60.55603%)" offset="0.742188"/><stop stop-opacity="1" stop-color="rgb(19.549561%, 12.559509%, 60.372925%)" offset="0.746094"/><stop stop-opacity="1" stop-color="rgb(19.491577%, 12.294006%, 60.191345%)" offset="0.75"/><stop stop-opacity="1" stop-color="rgb(19.432068%, 12.028503%, 60.00824%)" offset="0.753906"/><stop stop-opacity="1" stop-color="rgb(19.374084%, 11.763%, 59.825134%)" offset="0.757812"/><stop stop-opacity="1" stop-color="rgb(19.316101%, 11.497498%, 59.642029%)" offset="0.761719"/><stop stop-opacity="1" stop-color="rgb(19.258118%, 11.231995%, 59.460449%)" offset="0.765625"/><stop stop-opacity="1" stop-color="rgb(19.200134%, 10.966492%, 59.277344%)" offset="0.769531"/><stop stop-opacity="1" stop-color="rgb(19.142151%, 10.700989%, 59.094238%)" offset="0.773438"/><stop stop-opacity="1" stop-color="rgb(19.082642%, 10.435486%, 58.911133%)" offset="0.777344"/><stop stop-opacity="1" stop-color="rgb(19.024658%, 10.169983%, 58.729553%)" offset="0.78125"/><stop stop-opacity="1" stop-color="rgb(18.966675%, 9.90448%, 58.546448%)" offset="0.785156"/><stop stop-opacity="1" stop-color="rgb(18.908691%, 9.638977%, 58.364868%)" offset="0.789063"/><stop stop-opacity="1" stop-color="rgb(18.850708%, 9.371948%, 58.181763%)" offset="0.792969"/><stop stop-opacity="1" stop-color="rgb(18.792725%, 9.106445%, 57.998657%)" offset="0.796875"/><stop stop-opacity="1" stop-color="rgb(18.734741%, 8.840942%, 57.815552%)" offset="0.800781"/><stop stop-opacity="1" stop-color="rgb(18.676758%, 8.575439%, 57.633972%)" offset="0.804688"/><stop stop-opacity="1" stop-color="rgb(18.617249%, 8.309937%, 57.450867%)" offset="0.808594"/><stop stop-opacity="1" stop-color="rgb(18.559265%, 8.044434%, 57.269287%)" offset="0.8125"/><stop stop-opacity="1" stop-color="rgb(18.501282%, 7.778931%, 57.086182%)" offset="0.816406"/><stop stop-opacity="1" stop-color="rgb(18.443298%, 7.513428%, 56.903076%)" offset="0.820313"/><stop stop-opacity="1" stop-color="rgb(18.435669%, 7.481384%, 56.880188%)" offset="0.828125"/><stop stop-opacity="1" stop-color="rgb(18.429565%, 7.449341%, 56.858826%)" offset="0.84375"/><stop stop-opacity="1" stop-color="rgb(18.429565%, 7.449341%, 56.858826%)" offset="0.875"/><stop stop-opacity="1" stop-color="rgb(18.429565%, 7.449341%, 56.858826%)" offset="1"/></linearGradient><clipPath id="3e0e123f81"><path d="M 200 310.75 L 283 310.75 L 283 439 L 200 439 Z M 200 310.75 " clip-rule="nonzero"/></clipPath><clipPath id="3c9a596cfc"><path d="M 230.351562 330.523438 L 217.179688 347.65625 C 218.945312 347.699219 220.691406 347.910156 222.414062 348.289062 C 224.140625 348.667969 225.8125 349.210938 227.429688 349.914062 C 229.050781 350.613281 230.585938 351.46875 232.039062 352.46875 C 233.496094 353.46875 234.839844 354.597656 236.074219 355.859375 C 237.304688 357.121094 238.40625 358.488281 239.375 359.960938 C 240.34375 361.433594 241.160156 362.988281 241.828125 364.617188 C 242.492188 366.25 242.996094 367.929688 243.335938 369.660156 C 243.675781 371.390625 243.84375 373.136719 243.84375 374.898438 C 243.84375 376.660156 243.675781 378.40625 243.335938 380.136719 C 242.996094 381.863281 242.492188 383.542969 241.828125 385.175781 C 241.160156 386.808594 240.34375 388.363281 239.375 389.835938 C 238.40625 391.308594 237.304688 392.675781 236.074219 393.9375 C 234.839844 395.199219 233.496094 396.328125 232.039062 397.328125 C 230.585938 398.328125 229.050781 399.179688 227.429688 399.882812 C 225.8125 400.585938 224.140625 401.128906 222.414062 401.507812 C 220.691406 401.886719 218.945312 402.097656 217.179688 402.136719 L 200.6875 420.839844 L 217.179688 438.925781 C 219.285156 438.972656 221.386719 438.917969 223.484375 438.761719 C 225.582031 438.601562 227.667969 438.34375 229.742188 437.980469 C 231.816406 437.617188 233.863281 437.15625 235.890625 436.589844 C 237.917969 436.027344 239.914062 435.367188 241.875 434.605469 C 243.839844 433.847656 245.757812 432.992188 247.636719 432.046875 C 249.515625 431.097656 251.34375 430.058594 253.117188 428.933594 C 254.894531 427.804688 256.609375 426.59375 258.265625 425.296875 C 259.921875 424.003906 261.511719 422.628906 263.03125 421.179688 C 264.554688 419.726562 266 418.203125 267.371094 416.609375 C 268.742188 415.019531 270.03125 413.359375 271.238281 411.640625 C 272.445312 409.921875 273.566406 408.148438 274.597656 406.316406 C 275.632812 404.488281 276.574219 402.609375 277.421875 400.6875 C 278.269531 398.765625 279.019531 396.808594 279.675781 394.8125 C 280.328125 392.816406 280.886719 390.792969 281.339844 388.742188 C 281.796875 386.691406 282.148438 384.625 282.402344 382.539062 C 282.652344 380.457031 282.800781 378.363281 282.847656 376.261719 C 282.894531 374.164062 282.835938 372.066406 282.675781 369.972656 C 282.511719 367.878906 282.25 365.796875 281.882812 363.730469 C 281.515625 361.664062 281.050781 359.617188 280.480469 357.59375 C 279.914062 355.574219 279.25 353.582031 278.484375 351.625 C 277.722656 349.667969 276.863281 347.753906 275.910156 345.882812 C 274.957031 344.007812 273.914062 342.1875 272.785156 340.417969 C 271.652344 338.648438 270.433594 336.9375 269.132812 335.285156 C 267.832031 333.632812 266.457031 332.050781 265 330.535156 C 263.542969 329.019531 262.015625 327.578125 260.414062 326.214844 C 258.816406 324.847656 257.15625 323.5625 255.429688 322.359375 C 253.703125 321.15625 251.925781 320.042969 250.089844 319.015625 C 248.253906 317.984375 246.371094 317.050781 244.445312 316.207031 C 242.519531 315.363281 240.554688 314.617188 238.550781 313.964844 C 236.550781 313.316406 234.523438 312.761719 232.46875 312.3125 C 230.414062 311.859375 228.339844 311.511719 226.25 311.261719 C 224.160156 311.011719 222.0625 310.867188 219.960938 310.824219 C 219.039062 310.824219 218.101562 310.824219 217.179688 310.824219 Z M 230.351562 330.523438 " clip-rule="nonzero"/></clipPath><clipPath id="3f2d018c80"><path d="M 167.550781 429.777344 L 206.441406 290.132812 L 314.476562 320.046875 L 275.597656 459.738281 Z M 167.550781 429.777344 " clip-rule="nonzero"/></clipPath><linearGradient x1="-1861.116994" gradientTransform="matrix(-22.901819, 82.29045, -82.469512, -22.852095, -198635.778592, 110153.833222)" y1="-1895.15" x2="-1859.414234" gradientUnits="userSpaceOnUse" y2="-1895.15" id="317faab0ea"><stop stop-opacity="1" stop-color="rgb(12.548828%, 33.329773%, 85.488892%)" offset="0"/><stop stop-opacity="1" stop-color="rgb(12.548828%, 33.329773%, 85.488892%)" offset="0.125"/><stop stop-opacity="1" stop-color="rgb(12.548828%, 33.329773%, 85.488892%)" offset="0.15625"/><stop stop-opacity="1" stop-color="rgb(12.548828%, 33.329773%, 85.488892%)" offset="0.171875"/><stop stop-opacity="1" stop-color="rgb(12.521362%, 33.4198%, 85.513306%)" offset="0.179688"/><stop stop-opacity="1" stop-color="rgb(12.416077%, 33.766174%, 85.604858%)" offset="0.183594"/><stop stop-opacity="1" stop-color="rgb(12.339783%, 34.020996%, 85.671997%)" offset="0.1875"/><stop stop-opacity="1" stop-color="rgb(12.263489%, 34.275818%, 85.739136%)" offset="0.191406"/><stop stop-opacity="1" stop-color="rgb(12.187195%, 34.53064%, 85.806274%)" offset="0.195313"/><stop stop-opacity="1" stop-color="rgb(12.109375%, 34.785461%, 85.873413%)" offset="0.199219"/><stop stop-opacity="1" stop-color="rgb(12.033081%, 35.040283%, 85.940552%)" offset="0.203125"/><stop stop-opacity="1" stop-color="rgb(11.955261%, 35.293579%, 86.00769%)" offset="0.207031"/><stop stop-opacity="1" stop-color="rgb(11.878967%, 35.548401%, 86.074829%)" offset="0.210938"/><stop stop-opacity="1" stop-color="rgb(11.801147%, 35.803223%, 86.141968%)" offset="0.214844"/><stop stop-opacity="1" stop-color="rgb(11.724854%, 36.058044%, 86.210632%)" offset="0.21875"/><stop stop-opacity="1" stop-color="rgb(11.64856%, 36.312866%, 86.277771%)" offset="0.222656"/><stop stop-opacity="1" stop-color="rgb(11.572266%, 36.567688%, 86.34491%)" offset="0.226563"/><stop stop-opacity="1" stop-color="rgb(11.494446%, 36.82251%, 86.412048%)" offset="0.230469"/><stop stop-opacity="1" stop-color="rgb(11.418152%, 37.077332%, 86.479187%)" offset="0.234375"/><stop stop-opacity="1" stop-color="rgb(11.340332%, 37.332153%, 86.546326%)" offset="0.238281"/><stop stop-opacity="1" stop-color="rgb(11.264038%, 37.586975%, 86.613464%)" offset="0.242188"/><stop stop-opacity="1" stop-color="rgb(11.186218%, 37.840271%, 86.680603%)" offset="0.246094"/><stop stop-opacity="1" stop-color="rgb(11.109924%, 38.095093%, 86.747742%)" offset="0.25"/><stop stop-opacity="1" stop-color="rgb(11.032104%, 38.349915%, 86.81488%)" offset="0.253906"/><stop stop-opacity="1" stop-color="rgb(10.955811%, 38.604736%, 86.882019%)" offset="0.257813"/><stop stop-opacity="1" stop-color="rgb(10.879517%, 38.859558%, 86.949158%)" offset="0.261719"/><stop stop-opacity="1" stop-color="rgb(10.803223%, 39.11438%, 87.017822%)" offset="0.265625"/><stop stop-opacity="1" stop-color="rgb(10.725403%, 39.369202%, 87.084961%)" offset="0.269531"/><stop stop-opacity="1" stop-color="rgb(10.649109%, 39.624023%, 87.1521%)" offset="0.273438"/><stop stop-opacity="1" stop-color="rgb(10.571289%, 39.877319%, 87.219238%)" offset="0.277344"/><stop stop-opacity="1" stop-color="rgb(10.494995%, 40.132141%, 87.286377%)" offset="0.28125"/><stop stop-opacity="1" stop-color="rgb(10.417175%, 40.386963%, 87.353516%)" offset="0.285156"/><stop stop-opacity="1" stop-color="rgb(10.340881%, 40.641785%, 87.420654%)" offset="0.289062"/><stop stop-opacity="1" stop-color="rgb(10.264587%, 40.896606%, 87.487793%)" offset="0.292969"/><stop stop-opacity="1" stop-color="rgb(10.188293%, 41.151428%, 87.554932%)" offset="0.296875"/><stop stop-opacity="1" stop-color="rgb(10.110474%, 41.40625%, 87.62207%)" offset="0.300781"/><stop stop-opacity="1" stop-color="rgb(10.03418%, 41.661072%, 87.689209%)" offset="0.304688"/><stop stop-opacity="1" stop-color="rgb(9.95636%, 41.915894%, 87.756348%)" offset="0.308594"/><stop stop-opacity="1" stop-color="rgb(9.880066%, 42.170715%, 87.825012%)" offset="0.3125"/><stop stop-opacity="1" stop-color="rgb(9.802246%, 42.424011%, 87.892151%)" offset="0.316406"/><stop stop-opacity="1" stop-color="rgb(9.725952%, 42.678833%, 87.95929%)" offset="0.320313"/><stop stop-opacity="1" stop-color="rgb(9.649658%, 42.933655%, 88.026428%)" offset="0.324219"/><stop stop-opacity="1" stop-color="rgb(9.573364%, 43.188477%, 88.093567%)" offset="0.328125"/><stop stop-opacity="1" stop-color="rgb(9.495544%, 43.443298%, 88.160706%)" offset="0.332031"/><stop stop-opacity="1" stop-color="rgb(9.41925%, 43.69812%, 88.227844%)" offset="0.335938"/><stop stop-opacity="1" stop-color="rgb(9.341431%, 43.952942%, 88.294983%)" offset="0.339844"/><stop stop-opacity="1" stop-color="rgb(9.265137%, 44.207764%, 88.362122%)" offset="0.34375"/><stop stop-opacity="1" stop-color="rgb(9.187317%, 44.46106%, 88.42926%)" offset="0.347656"/><stop stop-opacity="1" stop-color="rgb(9.111023%, 44.715881%, 88.496399%)" offset="0.351563"/><stop stop-opacity="1" stop-color="rgb(9.033203%, 44.970703%, 88.563538%)" offset="0.355469"/><stop stop-opacity="1" stop-color="rgb(8.956909%, 45.225525%, 88.632202%)" offset="0.359375"/><stop stop-opacity="1" stop-color="rgb(8.880615%, 45.480347%, 88.699341%)" offset="0.363281"/><stop stop-opacity="1" stop-color="rgb(8.804321%, 45.735168%, 88.766479%)" offset="0.367188"/><stop stop-opacity="1" stop-color="rgb(8.726501%, 45.98999%, 88.833618%)" offset="0.371094"/><stop stop-opacity="1" stop-color="rgb(8.650208%, 46.244812%, 88.900757%)" offset="0.375"/><stop stop-opacity="1" stop-color="rgb(8.572388%, 46.498108%, 88.967896%)" offset="0.378906"/><stop stop-opacity="1" stop-color="rgb(8.496094%, 46.75293%, 89.035034%)" offset="0.382813"/><stop stop-opacity="1" stop-color="rgb(8.418274%, 47.007751%, 89.102173%)" offset="0.386719"/><stop stop-opacity="1" stop-color="rgb(8.34198%, 47.262573%, 89.169312%)" offset="0.390625"/><stop stop-opacity="1" stop-color="rgb(8.265686%, 47.517395%, 89.23645%)" offset="0.394531"/><stop stop-opacity="1" stop-color="rgb(8.189392%, 47.772217%, 89.303589%)" offset="0.398438"/><stop stop-opacity="1" stop-color="rgb(8.111572%, 48.027039%, 89.370728%)" offset="0.402344"/><stop stop-opacity="1" stop-color="rgb(8.035278%, 48.28186%, 89.439392%)" offset="0.40625"/><stop stop-opacity="1" stop-color="rgb(7.957458%, 48.536682%, 89.506531%)" offset="0.410156"/><stop stop-opacity="1" stop-color="rgb(7.881165%, 48.791504%, 89.573669%)" offset="0.414062"/><stop stop-opacity="1" stop-color="rgb(7.803345%, 49.0448%, 89.640808%)" offset="0.417969"/><stop stop-opacity="1" stop-color="rgb(7.727051%, 49.299622%, 89.707947%)" offset="0.421875"/><stop stop-opacity="1" stop-color="rgb(7.650757%, 49.554443%, 89.775085%)" offset="0.425781"/><stop stop-opacity="1" stop-color="rgb(7.574463%, 49.809265%, 89.842224%)" offset="0.429688"/><stop stop-opacity="1" stop-color="rgb(7.496643%, 50.064087%, 89.909363%)" offset="0.433594"/><stop stop-opacity="1" stop-color="rgb(7.420349%, 50.318909%, 89.976501%)" offset="0.4375"/><stop stop-opacity="1" stop-color="rgb(7.342529%, 50.57373%, 90.04364%)" offset="0.441406"/><stop stop-opacity="1" stop-color="rgb(7.266235%, 50.828552%, 90.110779%)" offset="0.445312"/><stop stop-opacity="1" stop-color="rgb(7.188416%, 51.081848%, 90.177917%)" offset="0.449219"/><stop stop-opacity="1" stop-color="rgb(7.112122%, 51.33667%, 90.245056%)" offset="0.453125"/><stop stop-opacity="1" stop-color="rgb(7.035828%, 51.591492%, 90.312195%)" offset="0.457031"/><stop stop-opacity="1" stop-color="rgb(6.959534%, 51.846313%, 90.380859%)" offset="0.460938"/><stop stop-opacity="1" stop-color="rgb(6.881714%, 52.101135%, 90.447998%)" offset="0.464844"/><stop stop-opacity="1" stop-color="rgb(6.80542%, 52.355957%, 90.515137%)" offset="0.46875"/><stop stop-opacity="1" stop-color="rgb(6.7276%, 52.610779%, 90.582275%)" offset="0.472656"/><stop stop-opacity="1" stop-color="rgb(6.651306%, 52.865601%, 90.649414%)" offset="0.476562"/><stop stop-opacity="1" stop-color="rgb(6.573486%, 53.120422%, 90.716553%)" offset="0.480469"/><stop stop-opacity="1" stop-color="rgb(6.497192%, 53.375244%, 90.783691%)" offset="0.484375"/><stop stop-opacity="1" stop-color="rgb(6.419373%, 53.62854%, 90.85083%)" offset="0.488281"/><stop stop-opacity="1" stop-color="rgb(6.343079%, 53.883362%, 90.917969%)" offset="0.492188"/><stop stop-opacity="1" stop-color="rgb(6.266785%, 54.138184%, 90.985107%)" offset="0.496094"/><stop stop-opacity="1" stop-color="rgb(6.190491%, 54.393005%, 91.052246%)" offset="0.5"/><stop stop-opacity="1" stop-color="rgb(6.112671%, 54.647827%, 91.119385%)" offset="0.503906"/><stop stop-opacity="1" stop-color="rgb(6.036377%, 54.902649%, 91.188049%)" offset="0.507812"/><stop stop-opacity="1" stop-color="rgb(5.958557%, 55.157471%, 91.255188%)" offset="0.511719"/><stop stop-opacity="1" stop-color="rgb(5.882263%, 55.412292%, 91.322327%)" offset="0.515625"/><stop stop-opacity="1" stop-color="rgb(5.804443%, 55.665588%, 91.389465%)" offset="0.519531"/><stop stop-opacity="1" stop-color="rgb(5.728149%, 55.92041%, 91.456604%)" offset="0.523438"/><stop stop-opacity="1" stop-color="rgb(5.651855%, 56.175232%, 91.523743%)" offset="0.527344"/><stop stop-opacity="1" stop-color="rgb(5.575562%, 56.430054%, 91.590881%)" offset="0.53125"/><stop stop-opacity="1" stop-color="rgb(5.497742%, 56.684875%, 91.65802%)" offset="0.535156"/><stop stop-opacity="1" stop-color="rgb(5.421448%, 56.939697%, 91.725159%)" offset="0.539062"/><stop stop-opacity="1" stop-color="rgb(5.343628%, 57.194519%, 91.792297%)" offset="0.542969"/><stop stop-opacity="1" stop-color="rgb(5.267334%, 57.449341%, 91.859436%)" offset="0.546875"/><stop stop-opacity="1" stop-color="rgb(5.189514%, 57.704163%, 91.926575%)" offset="0.550781"/><stop stop-opacity="1" stop-color="rgb(5.11322%, 57.958984%, 91.995239%)" offset="0.554688"/><stop stop-opacity="1" stop-color="rgb(5.036926%, 58.21228%, 92.062378%)" offset="0.558594"/><stop stop-opacity="1" stop-color="rgb(4.960632%, 58.467102%, 92.129517%)" offset="0.5625"/><stop stop-opacity="1" stop-color="rgb(4.882812%, 58.721924%, 92.196655%)" offset="0.566406"/><stop stop-opacity="1" stop-color="rgb(4.806519%, 58.976746%, 92.263794%)" offset="0.570312"/><stop stop-opacity="1" stop-color="rgb(4.728699%, 59.231567%, 92.330933%)" offset="0.574219"/><stop stop-opacity="1" stop-color="rgb(4.652405%, 59.486389%, 92.398071%)" offset="0.578125"/><stop stop-opacity="1" stop-color="rgb(4.574585%, 59.741211%, 92.46521%)" offset="0.582031"/><stop stop-opacity="1" stop-color="rgb(4.498291%, 59.996033%, 92.532349%)" offset="0.585938"/><stop stop-opacity="1" stop-color="rgb(4.420471%, 60.249329%, 92.599487%)" offset="0.589844"/><stop stop-opacity="1" stop-color="rgb(4.344177%, 60.50415%, 92.666626%)" offset="0.59375"/><stop stop-opacity="1" stop-color="rgb(4.267883%, 60.758972%, 92.733765%)" offset="0.597656"/><stop stop-opacity="1" stop-color="rgb(4.191589%, 61.013794%, 92.802429%)" offset="0.601562"/><stop stop-opacity="1" stop-color="rgb(4.11377%, 61.268616%, 92.869568%)" offset="0.605469"/><stop stop-opacity="1" stop-color="rgb(4.037476%, 61.523438%, 92.936707%)" offset="0.609375"/><stop stop-opacity="1" stop-color="rgb(3.959656%, 61.778259%, 93.003845%)" offset="0.613281"/><stop stop-opacity="1" stop-color="rgb(3.883362%, 62.033081%, 93.070984%)" offset="0.617188"/><stop stop-opacity="1" stop-color="rgb(3.805542%, 62.287903%, 93.138123%)" offset="0.621094"/><stop stop-opacity="1" stop-color="rgb(3.729248%, 62.542725%, 93.205261%)" offset="0.625"/><stop stop-opacity="1" stop-color="rgb(3.652954%, 62.796021%, 93.2724%)" offset="0.628906"/><stop stop-opacity="1" stop-color="rgb(3.57666%, 63.050842%, 93.339539%)" offset="0.632812"/><stop stop-opacity="1" stop-color="rgb(3.49884%, 63.305664%, 93.406677%)" offset="0.636719"/><stop stop-opacity="1" stop-color="rgb(3.422546%, 63.560486%, 93.473816%)" offset="0.640625"/><stop stop-opacity="1" stop-color="rgb(3.344727%, 63.815308%, 93.540955%)" offset="0.644531"/><stop stop-opacity="1" stop-color="rgb(3.268433%, 64.070129%, 93.608093%)" offset="0.648438"/><stop stop-opacity="1" stop-color="rgb(3.190613%, 64.324951%, 93.675232%)" offset="0.652344"/><stop stop-opacity="1" stop-color="rgb(3.114319%, 64.579773%, 93.743896%)" offset="0.65625"/><stop stop-opacity="1" stop-color="rgb(3.038025%, 64.833069%, 93.811035%)" offset="0.660156"/><stop stop-opacity="1" stop-color="rgb(2.961731%, 65.087891%, 93.878174%)" offset="0.664062"/><stop stop-opacity="1" stop-color="rgb(2.883911%, 65.342712%, 93.945312%)" offset="0.667969"/><stop stop-opacity="1" stop-color="rgb(2.807617%, 65.597534%, 94.012451%)" offset="0.671875"/><stop stop-opacity="1" stop-color="rgb(2.729797%, 65.852356%, 94.07959%)" offset="0.675781"/><stop stop-opacity="1" stop-color="rgb(2.653503%, 66.107178%, 94.146729%)" offset="0.679688"/><stop stop-opacity="1" stop-color="rgb(2.575684%, 66.362%, 94.213867%)" offset="0.683594"/><stop stop-opacity="1" stop-color="rgb(2.49939%, 66.616821%, 94.281006%)" offset="0.6875"/><stop stop-opacity="1" stop-color="rgb(2.423096%, 66.870117%, 94.348145%)" offset="0.691406"/><stop stop-opacity="1" stop-color="rgb(2.346802%, 67.124939%, 94.415283%)" offset="0.695312"/><stop stop-opacity="1" stop-color="rgb(2.268982%, 67.379761%, 94.482422%)" offset="0.699219"/><stop stop-opacity="1" stop-color="rgb(2.192688%, 67.634583%, 94.551086%)" offset="0.703125"/><stop stop-opacity="1" stop-color="rgb(2.114868%, 67.889404%, 94.618225%)" offset="0.707031"/><stop stop-opacity="1" stop-color="rgb(2.038574%, 68.144226%, 94.685364%)" offset="0.710938"/><stop stop-opacity="1" stop-color="rgb(1.960754%, 68.399048%, 94.752502%)" offset="0.714844"/><stop stop-opacity="1" stop-color="rgb(1.88446%, 68.65387%, 94.819641%)" offset="0.71875"/><stop stop-opacity="1" stop-color="rgb(1.806641%, 68.908691%, 94.88678%)" offset="0.722656"/><stop stop-opacity="1" stop-color="rgb(1.730347%, 69.163513%, 94.953918%)" offset="0.726562"/><stop stop-opacity="1" stop-color="rgb(1.654053%, 69.416809%, 95.021057%)" offset="0.730469"/><stop stop-opacity="1" stop-color="rgb(1.577759%, 69.671631%, 95.088196%)" offset="0.734375"/><stop stop-opacity="1" stop-color="rgb(1.499939%, 69.926453%, 95.155334%)" offset="0.738281"/><stop stop-opacity="1" stop-color="rgb(1.423645%, 70.181274%, 95.222473%)" offset="0.742188"/><stop stop-opacity="1" stop-color="rgb(1.345825%, 70.436096%, 95.289612%)" offset="0.746094"/><stop stop-opacity="1" stop-color="rgb(1.269531%, 70.690918%, 95.358276%)" offset="0.75"/><stop stop-opacity="1" stop-color="rgb(1.191711%, 70.94574%, 95.425415%)" offset="0.753906"/><stop stop-opacity="1" stop-color="rgb(1.115417%, 71.200562%, 95.492554%)" offset="0.757812"/><stop stop-opacity="1" stop-color="rgb(1.039124%, 71.453857%, 95.559692%)" offset="0.761719"/><stop stop-opacity="1" stop-color="rgb(0.96283%, 71.708679%, 95.626831%)" offset="0.765625"/><stop stop-opacity="1" stop-color="rgb(0.88501%, 71.963501%, 95.69397%)" offset="0.769531"/><stop stop-opacity="1" stop-color="rgb(0.808716%, 72.218323%, 95.761108%)" offset="0.773438"/><stop stop-opacity="1" stop-color="rgb(0.730896%, 72.473145%, 95.828247%)" offset="0.777344"/><stop stop-opacity="1" stop-color="rgb(0.654602%, 72.727966%, 95.895386%)" offset="0.78125"/><stop stop-opacity="1" stop-color="rgb(0.576782%, 72.982788%, 95.962524%)" offset="0.785156"/><stop stop-opacity="1" stop-color="rgb(0.500488%, 73.23761%, 96.029663%)" offset="0.789062"/><stop stop-opacity="1" stop-color="rgb(0.424194%, 73.492432%, 96.096802%)" offset="0.792969"/><stop stop-opacity="1" stop-color="rgb(0.3479%, 73.747253%, 96.165466%)" offset="0.796875"/><stop stop-opacity="1" stop-color="rgb(0.270081%, 74.000549%, 96.232605%)" offset="0.800781"/><stop stop-opacity="1" stop-color="rgb(0.193787%, 74.255371%, 96.299744%)" offset="0.804688"/><stop stop-opacity="1" stop-color="rgb(0.115967%, 74.510193%, 96.366882%)" offset="0.808594"/><stop stop-opacity="1" stop-color="rgb(0.0396729%, 74.765015%, 96.434021%)" offset="0.8125"/><stop stop-opacity="1" stop-color="rgb(0.0198364%, 74.832153%, 96.450806%)" offset="0.875"/><stop stop-opacity="1" stop-color="rgb(0%, 74.899292%, 96.469116%)" offset="1"/></linearGradient></defs><path fill="#3b62de" d="M 373.953125 398.265625 C 374.3125 398.273438 374.65625 398.347656 374.988281 398.488281 C 375.320312 398.628906 375.613281 398.828125 375.867188 399.082031 C 376.121094 399.335938 376.320312 399.628906 376.460938 399.957031 C 376.605469 400.289062 376.679688 400.632812 376.6875 400.992188 L 376.6875 408.164062 C 376.679688 408.523438 376.605469 408.871094 376.460938 409.199219 C 376.320312 409.53125 376.121094 409.824219 375.867188 410.078125 C 375.613281 410.332031 375.320312 410.53125 374.988281 410.671875 C 374.65625 410.8125 374.3125 410.886719 373.953125 410.894531 L 329.546875 410.894531 C 329.1875 410.890625 328.839844 410.820312 328.503906 410.683594 C 328.171875 410.542969 327.875 410.347656 327.621094 410.089844 C 327.363281 409.835938 327.167969 409.539062 327.027344 409.207031 C 326.886719 408.875 326.816406 408.527344 326.816406 408.164062 L 326.816406 342.941406 C 326.816406 342.578125 326.886719 342.234375 327.027344 341.898438 C 327.167969 341.566406 327.363281 341.273438 327.621094 341.015625 C 327.875 340.761719 328.171875 340.5625 328.503906 340.425781 C 328.839844 340.285156 329.1875 340.214844 329.546875 340.214844 L 373.167969 340.214844 C 373.921875 340.207031 374.5625 340.480469 375.085938 341.027344 C 375.636719 341.546875 375.902344 342.183594 375.886719 342.941406 L 375.886719 350.113281 C 375.882812 350.472656 375.808594 350.820312 375.671875 351.148438 C 375.53125 351.480469 375.335938 351.773438 375.082031 352.03125 C 374.828125 352.285156 374.535156 352.480469 374.203125 352.621094 C 373.871094 352.761719 373.527344 352.835938 373.167969 352.84375 L 340.421875 352.84375 L 340.421875 368.890625 L 370.929688 368.890625 C 371.292969 368.894531 371.640625 368.964844 371.976562 369.105469 C 372.308594 369.242188 372.605469 369.441406 372.859375 369.695312 C 373.117188 369.949219 373.3125 370.246094 373.453125 370.578125 C 373.59375 370.910156 373.664062 371.257812 373.664062 371.621094 L 373.664062 378.777344 C 373.671875 379.144531 373.605469 379.496094 373.472656 379.835938 C 373.335938 380.175781 373.144531 380.480469 372.886719 380.742188 C 372.632812 381.003906 372.335938 381.207031 372 381.355469 C 371.664062 381.5 371.3125 381.574219 370.945312 381.582031 L 340.421875 381.582031 L 340.421875 398.339844 Z M 373.953125 398.265625 " fill-opacity="1" fill-rule="nonzero"/><path fill="#3b62de" d="M 435.136719 410.894531 C 434.132812 410.964844 433.253906 410.664062 432.507812 409.988281 C 431.902344 409.371094 431.464844 408.90625 431.195312 408.574219 L 402.859375 366.511719 L 402.859375 408.105469 C 402.859375 408.464844 402.789062 408.8125 402.648438 409.148438 C 402.507812 409.480469 402.3125 409.773438 402.054688 410.03125 C 401.800781 410.285156 401.503906 410.484375 401.171875 410.621094 C 400.835938 410.761719 400.488281 410.832031 400.125 410.832031 L 391.941406 410.832031 C 391.578125 410.832031 391.230469 410.761719 390.894531 410.621094 C 390.5625 410.484375 390.265625 410.285156 390.011719 410.03125 C 389.753906 409.773438 389.558594 409.480469 389.417969 409.148438 C 389.277344 408.8125 389.207031 408.464844 389.207031 408.105469 L 389.207031 342.878906 C 389.207031 342.519531 389.277344 342.171875 389.417969 341.839844 C 389.558594 341.503906 389.753906 341.210938 390.011719 340.957031 C 390.265625 340.699219 390.5625 340.503906 390.894531 340.363281 C 391.230469 340.226562 391.578125 340.15625 391.941406 340.152344 L 399.023438 340.152344 C 400.027344 340.082031 400.902344 340.382812 401.652344 341.058594 C 402.253906 341.660156 402.695312 342.140625 402.964844 342.472656 L 431.34375 384.59375 L 431.34375 343 C 431.347656 342.640625 431.417969 342.292969 431.558594 341.960938 C 431.695312 341.625 431.894531 341.332031 432.148438 341.078125 C 432.40625 340.820312 432.699219 340.625 433.035156 340.484375 C 433.367188 340.347656 433.714844 340.273438 434.078125 340.273438 L 442.28125 340.273438 C 442.640625 340.277344 442.984375 340.351562 443.316406 340.492188 C 443.648438 340.632812 443.941406 340.832031 444.195312 341.085938 C 444.449219 341.339844 444.644531 341.632812 444.785156 341.964844 C 444.921875 342.296875 444.996094 342.640625 445 343 L 445 408.226562 C 444.996094 408.585938 444.921875 408.929688 444.785156 409.261719 C 444.644531 409.59375 444.449219 409.886719 444.195312 410.140625 C 443.941406 410.394531 443.648438 410.59375 443.316406 410.734375 C 442.984375 410.875 442.640625 410.949219 442.28125 410.953125 Z M 435.136719 410.894531 " fill-opacity="1" fill-rule="nonzero"/><path fill="#3b62de" d="M 458.214844 366.359375 C 458.300781 362.546875 459.039062 358.863281 460.433594 355.3125 C 461.75 352.015625 463.710938 349.152344 466.308594 346.722656 C 469.074219 344.210938 472.230469 342.363281 475.777344 341.175781 C 480.289062 339.8125 484.902344 339.15625 489.613281 339.207031 C 494.328125 339.261719 498.921875 340.015625 503.402344 341.480469 C 506.765625 342.726562 509.789062 344.546875 512.464844 346.933594 C 514.527344 348.773438 516.109375 350.957031 517.207031 353.488281 C 517.992188 355.320312 518.496094 357.222656 518.71875 359.203125 C 518.765625 359.570312 518.722656 359.929688 518.589844 360.277344 C 518.453125 360.625 518.246094 360.917969 517.960938 361.160156 C 517.402344 361.675781 516.742188 361.925781 515.984375 361.914062 L 507.765625 361.914062 C 507.109375 361.945312 506.515625 361.761719 505.984375 361.371094 C 505.589844 361.050781 505.273438 360.664062 505.035156 360.210938 C 504.898438 359.941406 504.535156 359.351562 503.960938 358.433594 C 503.214844 357.339844 502.308594 356.402344 501.242188 355.613281 C 499.75 354.484375 498.121094 353.597656 496.363281 352.949219 C 493.917969 352.109375 491.398438 351.726562 488.8125 351.800781 C 486.613281 351.699219 484.46875 352 482.382812 352.703125 C 480.296875 353.410156 478.414062 354.46875 476.730469 355.886719 C 475.195312 357.296875 474.003906 358.957031 473.160156 360.863281 C 472.316406 362.765625 471.882812 364.757812 471.867188 366.84375 C 471.746094 369.40625 471.671875 372.148438 471.671875 375.070312 C 471.671875 377.996094 471.746094 380.738281 471.867188 383.300781 C 472.078125 388.886719 473.699219 392.941406 476.730469 395.460938 C 478.453125 396.789062 480.355469 397.777344 482.433594 398.425781 C 484.511719 399.078125 486.636719 399.351562 488.8125 399.246094 C 491.144531 399.273438 493.4375 399.007812 495.699219 398.445312 C 497.691406 397.957031 499.492188 397.082031 501.105469 395.824219 C 502.699219 394.523438 503.882812 392.921875 504.65625 391.015625 C 505.5625 388.664062 505.980469 386.226562 505.910156 383.707031 L 505.910156 382.894531 L 493.570312 382.894531 C 493.210938 382.886719 492.863281 382.8125 492.535156 382.667969 C 492.203125 382.527344 491.910156 382.332031 491.65625 382.078125 C 491.398438 381.824219 491.203125 381.53125 491.058594 381.199219 C 490.917969 380.871094 490.84375 380.523438 490.835938 380.164062 L 490.835938 373.023438 C 490.832031 372.265625 491.105469 371.628906 491.652344 371.109375 C 492.171875 370.558594 492.8125 370.289062 493.570312 370.308594 L 516.828125 370.308594 C 517.585938 370.289062 518.226562 370.558594 518.746094 371.109375 C 519.296875 371.628906 519.566406 372.265625 519.5625 373.023438 L 519.5625 384.128906 C 519.59375 387.964844 518.957031 391.6875 517.644531 395.296875 C 516.386719 398.660156 514.464844 401.589844 511.875 404.082031 C 509.082031 406.6875 505.875 408.605469 502.253906 409.839844 C 497.890625 411.203125 493.421875 411.882812 488.851562 411.882812 C 484.277344 411.882812 479.808594 411.203125 475.445312 409.839844 C 471.910156 408.640625 468.789062 406.757812 466.082031 404.1875 C 463.523438 401.699219 461.613281 398.785156 460.359375 395.445312 C 459.003906 391.851562 458.277344 388.132812 458.183594 384.292969 C 458.183594 383.011719 458.0625 381.597656 458.03125 380.058594 C 458.003906 378.523438 458.03125 376.925781 458.03125 375.3125 L 458.03125 370.566406 C 458.03125 369.027344 458.152344 367.640625 458.214844 366.359375 Z M 458.214844 366.359375 " fill-opacity="1" fill-rule="nonzero"/><path fill="#3b62de" d="M 535.121094 410.894531 C 534.757812 410.886719 534.414062 410.8125 534.082031 410.671875 C 533.75 410.53125 533.457031 410.332031 533.203125 410.078125 C 532.949219 409.824219 532.75 409.53125 532.609375 409.199219 C 532.46875 408.871094 532.394531 408.523438 532.386719 408.164062 L 532.386719 342.941406 C 532.394531 342.582031 532.46875 342.238281 532.609375 341.90625 C 532.75 341.574219 532.949219 341.28125 533.203125 341.027344 C 533.457031 340.773438 533.75 340.578125 534.082031 340.4375 C 534.414062 340.296875 534.757812 340.222656 535.121094 340.214844 L 543.320312 340.214844 C 543.679688 340.222656 544.027344 340.296875 544.359375 340.4375 C 544.6875 340.578125 544.980469 340.773438 545.238281 341.027344 C 545.492188 341.28125 545.6875 341.574219 545.832031 341.90625 C 545.972656 342.238281 546.046875 342.582031 546.054688 342.941406 L 546.054688 408.164062 C 546.046875 408.523438 545.972656 408.871094 545.832031 409.199219 C 545.6875 409.53125 545.492188 409.824219 545.238281 410.078125 C 544.980469 410.332031 544.6875 410.53125 544.359375 410.671875 C 544.027344 410.8125 543.679688 410.886719 543.320312 410.894531 Z M 535.121094 410.894531 " fill-opacity="1" fill-rule="nonzero"/><path fill="#3b62de" d="M 607.765625 410.894531 C 606.761719 410.964844 605.886719 410.664062 605.136719 409.988281 C 604.535156 409.371094 604.097656 408.90625 603.824219 408.574219 L 575.492188 366.511719 L 575.492188 408.105469 C 575.488281 408.472656 575.417969 408.820312 575.273438 409.15625 C 575.132812 409.492188 574.929688 409.789062 574.667969 410.046875 C 574.410156 410.300781 574.109375 410.5 573.769531 410.636719 C 573.429688 410.769531 573.078125 410.835938 572.710938 410.832031 L 564.527344 410.832031 C 564.164062 410.832031 563.816406 410.761719 563.480469 410.621094 C 563.148438 410.484375 562.851562 410.285156 562.597656 410.03125 C 562.339844 409.773438 562.144531 409.480469 562.003906 409.148438 C 561.863281 408.8125 561.792969 408.464844 561.792969 408.105469 L 561.792969 342.878906 C 561.792969 342.519531 561.863281 342.171875 562.003906 341.839844 C 562.144531 341.503906 562.339844 341.210938 562.597656 340.957031 C 562.851562 340.699219 563.148438 340.503906 563.480469 340.363281 C 563.816406 340.226562 564.164062 340.15625 564.527344 340.152344 L 571.609375 340.152344 C 572.613281 340.082031 573.488281 340.382812 574.238281 341.058594 C 574.839844 341.660156 575.277344 342.140625 575.550781 342.472656 L 603.886719 384.671875 L 603.886719 343 C 603.886719 342.640625 603.957031 342.292969 604.097656 341.960938 C 604.238281 341.625 604.433594 341.332031 604.691406 341.078125 C 604.945312 340.820312 605.242188 340.625 605.574219 340.484375 C 605.910156 340.347656 606.257812 340.273438 606.617188 340.273438 L 614.804688 340.273438 C 615.167969 340.273438 615.515625 340.347656 615.847656 340.484375 C 616.183594 340.625 616.476562 340.820312 616.734375 341.078125 C 616.988281 341.332031 617.1875 341.625 617.324219 341.960938 C 617.464844 342.292969 617.535156 342.640625 617.539062 343 L 617.539062 408.226562 C 617.535156 408.585938 617.464844 408.933594 617.328125 409.269531 C 617.1875 409.601562 616.988281 409.894531 616.734375 410.152344 C 616.476562 410.40625 616.183594 410.601562 615.847656 410.742188 C 615.515625 410.882812 615.167969 410.953125 614.804688 410.953125 Z M 607.765625 410.894531 " fill-opacity="1" fill-rule="nonzero"/><path fill="#3b62de" d="M 680.550781 398.265625 C 680.910156 398.273438 681.253906 398.347656 681.585938 398.488281 C 681.917969 398.628906 682.210938 398.828125 682.464844 399.082031 C 682.71875 399.335938 682.917969 399.628906 683.058594 399.957031 C 683.199219 400.289062 683.273438 400.632812 683.28125 400.992188 L 683.28125 408.164062 C 683.273438 408.523438 683.199219 408.871094 683.058594 409.199219 C 682.917969 409.53125 682.71875 409.824219 682.464844 410.078125 C 682.210938 410.332031 681.917969 410.53125 681.585938 410.671875 C 681.253906 410.8125 680.910156 410.886719 680.550781 410.894531 L 636.144531 410.894531 C 635.785156 410.886719 635.441406 410.8125 635.109375 410.671875 C 634.777344 410.53125 634.484375 410.332031 634.230469 410.078125 C 633.976562 409.824219 633.777344 409.53125 633.636719 409.199219 C 633.492188 408.871094 633.417969 408.523438 633.410156 408.164062 L 633.410156 342.941406 C 633.417969 342.582031 633.492188 342.238281 633.636719 341.90625 C 633.777344 341.574219 633.976562 341.28125 634.230469 341.027344 C 634.484375 340.773438 634.777344 340.578125 635.109375 340.4375 C 635.441406 340.296875 635.785156 340.222656 636.144531 340.214844 L 679.765625 340.214844 C 680.125 340.222656 680.46875 340.296875 680.800781 340.4375 C 681.132812 340.578125 681.425781 340.773438 681.679688 341.027344 C 681.933594 341.28125 682.132812 341.574219 682.273438 341.90625 C 682.414062 342.238281 682.488281 342.582031 682.496094 342.941406 L 682.496094 350.113281 C 682.488281 350.472656 682.414062 350.820312 682.273438 351.148438 C 682.132812 351.480469 681.933594 351.773438 681.679688 352.027344 C 681.425781 352.28125 681.132812 352.476562 680.800781 352.617188 C 680.46875 352.761719 680.125 352.835938 679.765625 352.84375 L 647.035156 352.84375 L 647.035156 368.890625 L 677.527344 368.890625 C 677.890625 368.894531 678.238281 368.964844 678.574219 369.105469 C 678.90625 369.242188 679.203125 369.441406 679.457031 369.695312 C 679.714844 369.949219 679.910156 370.246094 680.050781 370.578125 C 680.191406 370.910156 680.261719 371.257812 680.261719 371.621094 L 680.261719 378.777344 C 680.273438 379.542969 680.003906 380.183594 679.445312 380.707031 C 678.917969 381.242188 678.28125 381.507812 677.527344 381.507812 L 647.035156 381.507812 L 647.035156 398.265625 Z M 680.550781 398.265625 " fill-opacity="1" fill-rule="nonzero"/><path fill="#3b62de" d="M 769.78125 340.214844 C 770.140625 340.222656 770.484375 340.296875 770.816406 340.4375 C 771.148438 340.578125 771.441406 340.773438 771.695312 341.027344 C 771.949219 341.28125 772.148438 341.574219 772.289062 341.90625 C 772.429688 342.238281 772.503906 342.582031 772.511719 342.941406 C 772.515625 343.257812 772.453125 343.558594 772.316406 343.84375 L 748.332031 385.953125 L 748.332031 408.164062 C 748.324219 408.523438 748.25 408.871094 748.109375 409.199219 C 747.96875 409.53125 747.769531 409.824219 747.515625 410.078125 C 747.261719 410.332031 746.96875 410.53125 746.636719 410.671875 C 746.304688 410.8125 745.960938 410.886719 745.597656 410.894531 L 737.503906 410.894531 C 737.140625 410.890625 736.796875 410.816406 736.460938 410.679688 C 736.128906 410.539062 735.835938 410.339844 735.578125 410.085938 C 735.324219 409.832031 735.125 409.539062 734.984375 409.207031 C 734.847656 408.871094 734.773438 408.527344 734.769531 408.164062 L 734.769531 385.953125 L 710.753906 343.90625 C 710.621094 343.617188 710.554688 343.316406 710.558594 343 C 710.542969 342.246094 710.808594 341.605469 711.359375 341.085938 C 711.882812 340.53125 712.527344 340.261719 713.292969 340.273438 L 720.84375 340.273438 C 721.992188 340.191406 723 340.527344 723.867188 341.28125 C 724.351562 341.71875 724.753906 342.21875 725.074219 342.789062 L 741.476562 371.425781 L 757.863281 342.789062 C 758.1875 342.21875 758.59375 341.71875 759.085938 341.28125 C 759.949219 340.515625 760.957031 340.179688 762.105469 340.273438 Z M 769.78125 340.214844 " fill-opacity="1" fill-rule="nonzero"/><path fill="#3b62de" d="M 808.429688 340.214844 C 809.367188 340.136719 810.179688 340.421875 810.859375 341.070312 C 811.515625 341.832031 811.988281 342.691406 812.28125 343.648438 L 837.019531 407.457031 C 837.074219 407.660156 837.101562 407.867188 837.109375 408.074219 C 837.113281 408.28125 837.09375 408.488281 837.054688 408.695312 C 837.011719 408.898438 836.949219 409.097656 836.863281 409.285156 C 836.773438 409.476562 836.667969 409.65625 836.539062 409.820312 C 836.414062 409.988281 836.269531 410.136719 836.105469 410.269531 C 835.945312 410.402344 835.769531 410.515625 835.582031 410.605469 C 835.394531 410.699219 835.199219 410.769531 834.996094 410.820312 C 834.792969 410.867188 834.585938 410.890625 834.375 410.894531 L 827.097656 410.894531 C 826.027344 411.007812 825.082031 410.722656 824.257812 410.035156 C 823.769531 409.554688 823.402344 409 823.15625 408.363281 L 818.894531 397.164062 L 786.875 397.164062 L 782.527344 408.363281 C 782.265625 408.988281 781.898438 409.546875 781.425781 410.035156 C 780.601562 410.722656 779.652344 411.007812 778.585938 410.894531 L 771.289062 410.894531 C 770.53125 410.898438 769.894531 410.625 769.371094 410.078125 C 768.820312 409.5625 768.554688 408.921875 768.570312 408.164062 C 768.570312 407.925781 768.601562 407.691406 768.660156 407.457031 L 793.460938 343.648438 C 793.753906 342.691406 794.226562 341.832031 794.882812 341.070312 C 795.558594 340.425781 796.363281 340.136719 797.296875 340.214844 Z M 814.003906 384.59375 L 802.886719 355.765625 L 791.710938 384.59375 Z M 814.003906 384.59375 " fill-opacity="1" fill-rule="nonzero"/><path fill="#3b62de" d="M 875.214844 340.214844 C 883.652344 340.214844 890.0625 342.167969 894.441406 346.074219 C 898.820312 349.984375 901.015625 355.398438 901.027344 362.320312 C 901.09375 364.539062 900.839844 366.714844 900.261719 368.855469 C 899.683594 370.996094 898.804688 373.007812 897.628906 374.890625 C 896.429688 376.683594 894.980469 378.242188 893.273438 379.5625 C 891.570312 380.886719 889.699219 381.90625 887.660156 382.621094 L 901.632812 407.5625 C 901.816406 407.914062 901.917969 408.285156 901.933594 408.679688 C 901.929688 408.972656 901.871094 409.253906 901.757812 409.523438 C 901.640625 409.792969 901.480469 410.03125 901.273438 410.234375 C 901.066406 410.441406 900.828125 410.601562 900.558594 410.71875 C 900.289062 410.832031 900.007812 410.890625 899.714844 410.894531 L 891.105469 410.894531 C 889.957031 411.003906 888.953125 410.683594 888.082031 409.929688 C 887.527344 409.417969 887.070312 408.828125 886.710938 408.164062 L 873.492188 384.59375 L 860.035156 384.59375 L 860.035156 408.121094 C 860.035156 408.480469 859.964844 408.828125 859.824219 409.164062 C 859.683594 409.496094 859.488281 409.789062 859.230469 410.046875 C 858.976562 410.300781 858.679688 410.496094 858.347656 410.636719 C 858.011719 410.777344 857.664062 410.847656 857.304688 410.847656 L 849.101562 410.847656 C 848.738281 410.847656 848.390625 410.777344 848.058594 410.636719 C 847.722656 410.496094 847.429688 410.300781 847.171875 410.046875 C 846.917969 409.789062 846.71875 409.496094 846.582031 409.164062 C 846.441406 408.828125 846.371094 408.480469 846.367188 408.121094 L 846.367188 342.894531 C 846.371094 342.535156 846.441406 342.1875 846.582031 341.855469 C 846.71875 341.519531 846.917969 341.226562 847.171875 340.972656 C 847.429688 340.714844 847.722656 340.519531 848.058594 340.378906 C 848.390625 340.242188 848.738281 340.167969 849.101562 340.167969 Z M 860.035156 372.011719 L 874.777344 372.011719 C 878.03125 372.164062 881.101562 371.492188 883.992188 369.992188 C 886.269531 368.652344 887.402344 366.089844 887.417969 362.320312 C 887.433594 358.554688 886.285156 356.035156 883.992188 354.785156 C 881.078125 353.382812 878.007812 352.773438 874.777344 352.949219 L 860.097656 352.949219 Z M 860.035156 372.011719 " fill-opacity="1" fill-rule="nonzero"/><path fill="#3b62de" d="M 941.910156 340.214844 C 946.359375 340.128906 950.695312 340.785156 954.914062 342.1875 C 956.617188 342.746094 958.238281 343.492188 959.773438 344.417969 C 961.308594 345.34375 962.71875 346.429688 964.007812 347.671875 C 965.296875 348.917969 966.425781 350.292969 967.402344 351.792969 C 968.378906 353.292969 969.175781 354.882812 969.792969 356.566406 C 971.15625 360.265625 971.945312 364.082031 972.164062 368.019531 C 972.4375 373 972.4375 377.984375 972.164062 382.96875 C 971.949219 386.925781 971.160156 390.761719 969.792969 394.480469 C 968.539062 397.804688 966.667969 400.734375 964.175781 403.269531 C 961.570312 405.804688 958.550781 407.667969 955.113281 408.859375 C 950.996094 410.261719 946.761719 410.917969 942.410156 410.832031 L 916.914062 410.832031 C 916.554688 410.828125 916.207031 410.757812 915.875 410.617188 C 915.542969 410.476562 915.246094 410.28125 914.992188 410.027344 C 914.734375 409.769531 914.539062 409.476562 914.398438 409.144531 C 914.257812 408.8125 914.1875 408.464844 914.183594 408.105469 L 914.183594 342.941406 C 914.183594 342.578125 914.253906 342.234375 914.394531 341.898438 C 914.535156 341.566406 914.730469 341.273438 914.988281 341.015625 C 915.242188 340.761719 915.539062 340.5625 915.871094 340.425781 C 916.207031 340.285156 916.554688 340.214844 916.914062 340.214844 Z M 958.449219 368.019531 C 958.339844 365.941406 957.914062 363.933594 957.179688 361.988281 C 956.480469 360.148438 955.433594 358.53125 954.039062 357.136719 C 952.527344 355.671875 950.773438 354.589844 948.785156 353.898438 C 946.335938 353.066406 943.816406 352.683594 941.230469 352.75 L 927.640625 352.75 L 927.640625 398.160156 L 941.714844 398.160156 C 944.179688 398.222656 946.570312 397.835938 948.890625 397 C 950.8125 396.3125 952.5 395.253906 953.949219 393.820312 C 955.3125 392.429688 956.320312 390.816406 956.96875 388.980469 C 957.699219 387.035156 958.121094 385.027344 958.238281 382.953125 C 958.566406 377.976562 958.636719 373 958.449219 368.019531 Z M 958.449219 368.019531 " fill-opacity="1" fill-rule="nonzero"/><g clip-path="url(#4cfdfeeacd)"><g clip-path="url(#236d5a85b5)"><g clip-path="url(#44bbb51be6)"><path fill="url(#7cc8763f5d)" d="M 171.949219 484.371094 L 326.914062 420.070312 L 262.472656 265.441406 L 107.507812 329.742188 Z M 171.949219 484.371094 " fill-rule="nonzero"/></g></g></g><g clip-path="url(#3e0e123f81)"><g clip-path="url(#3c9a596cfc)"><g clip-path="url(#3f2d018c80)"><path fill="url(#317faab0ea)" d="M 316.003906 320 L 206.574219 289.675781 L 167.578125 429.796875 L 277.007812 460.121094 Z M 316.003906 320 " fill-rule="nonzero"/></g></g></g></svg>